<svg width="286" height="45" viewBox="0 0 286 45" fill="none" xmlns="http://www.w3.org/2000/svg">
<path d="M90 3.36C92.0267 3.36 93.7733 3.62667 95.24 4.16C96.7333 4.69333 98.24 5.57333 99.76 6.8C100.08 7.04 100.293 7.29333 100.4 7.56C100.507 7.8 100.56 8.09333 100.56 8.44C100.56 8.97333 100.36 9.41333 99.96 9.76C99.5867 10.1067 99.1467 10.28 98.64 10.28C98.1333 10.28 97.6667 10.1067 97.24 9.76C96.1467 8.82667 95.08 8.16 94.04 7.76C93 7.33333 91.6533 7.12 90 7.12C87.92 7.12 86 7.66667 84.24 8.76C82.5067 9.85333 81.12 11.3467 80.08 13.24C79.0667 15.1067 78.56 17.1467 78.56 19.36C78.56 21.6 79.0667 23.6533 80.08 25.52C81.12 27.3867 82.5067 28.8667 84.24 29.96C86 31.0533 87.92 31.6 90 31.6C92.56 31.6 95.0133 30.72 97.36 28.96C97.8133 28.64 98.2533 28.48 98.68 28.48C99.1867 28.48 99.6 28.6667 99.92 29.04C100.267 29.3867 100.44 29.8533 100.44 30.44C100.44 31 100.227 31.4933 99.8 31.92C96.92 34.24 93.6533 35.4 90 35.4C87.1467 35.4 84.5333 34.6933 82.16 33.28C79.8133 31.8667 77.96 29.9333 76.6 27.48C75.24 25.0267 74.56 22.32 74.56 19.36C74.56 16.4267 75.24 13.7467 76.6 11.32C77.96 8.86667 79.8133 6.93333 82.16 5.52C84.5333 4.08 87.1467 3.36 90 3.36ZM111.812 12.96C113.919 12.96 115.799 13.44 117.452 14.4C119.132 15.3333 120.439 16.64 121.372 18.32C122.332 20 122.812 21.92 122.812 24.08C122.812 26.2133 122.346 28.12 121.412 29.8C120.479 31.48 119.172 32.8 117.492 33.76C115.839 34.6933 113.946 35.16 111.812 35.16C109.679 35.16 107.772 34.6933 106.092 33.76C104.412 32.8 103.106 31.48 102.172 29.8C101.239 28.12 100.772 26.2133 100.772 24.08C100.772 21.92 101.239 20 102.172 18.32C103.106 16.64 104.412 15.3333 106.092 14.4C107.772 13.44 109.679 12.96 111.812 12.96ZM111.812 16.56C110.452 16.56 109.226 16.88 108.132 17.52C107.066 18.16 106.226 19.0533 105.612 20.2C104.999 21.3467 104.692 22.64 104.692 24.08C104.692 25.52 104.999 26.8133 105.612 27.96C106.226 29.08 107.066 29.96 108.132 30.6C109.226 31.24 110.452 31.56 111.812 31.56C113.172 31.56 114.386 31.24 115.452 30.6C116.546 29.96 117.386 29.08 117.972 27.96C118.586 26.8133 118.892 25.52 118.892 24.08C118.892 22.64 118.586 21.3467 117.972 20.2C117.386 19.0533 116.546 18.16 115.452 17.52C114.386 16.88 113.172 16.56 111.812 16.56ZM148.684 12.92C151.004 12.92 152.871 13.68 154.284 15.2C155.724 16.72 156.444 18.84 156.444 21.56V33C156.444 33.5867 156.258 34.08 155.884 34.48C155.511 34.8533 155.018 35.04 154.404 35.04C153.818 35.04 153.324 34.8533 152.924 34.48C152.551 34.08 152.364 33.5867 152.364 33V21.56C152.364 19.9333 151.951 18.7067 151.124 17.88C150.324 17.0267 149.244 16.6 147.884 16.6C146.498 16.6 145.351 17.08 144.444 18.04C143.564 19 143.124 20.2267 143.124 21.72V33C143.124 33.5867 142.938 34.08 142.564 34.48C142.191 34.8533 141.698 35.04 141.084 35.04C140.498 35.04 140.004 34.8533 139.604 34.48C139.231 34.08 139.044 33.5867 139.044 33V21.56C139.044 19.9333 138.631 18.7067 137.804 17.88C137.004 17.0267 135.924 16.6 134.564 16.6C133.151 16.6 131.991 17.08 131.084 18.04C130.204 19 129.764 20.2267 129.764 21.72V33C129.764 33.5867 129.578 34.08 129.204 34.48C128.831 34.8533 128.338 35.04 127.724 35.04C127.138 35.04 126.644 34.8533 126.244 34.48C125.871 34.08 125.684 33.5867 125.684 33V15.2C125.684 14.5867 125.871 14.0933 126.244 13.72C126.644 13.3467 127.138 13.16 127.724 13.16C128.311 13.16 128.791 13.3467 129.164 13.72C129.538 14.0667 129.738 14.5333 129.764 15.12C130.458 14.4267 131.284 13.8933 132.244 13.52C133.204 13.12 134.244 12.92 135.364 12.92C136.724 12.92 137.938 13.2 139.004 13.76C140.098 14.2933 140.991 15.0667 141.684 16.08C142.484 15.0933 143.484 14.32 144.684 13.76C145.884 13.2 147.218 12.92 148.684 12.92ZM183.023 12.92C185.343 12.92 187.21 13.68 188.623 15.2C190.063 16.72 190.783 18.84 190.783 21.56V33C190.783 33.5867 190.597 34.08 190.223 34.48C189.85 34.8533 189.357 35.04 188.743 35.04C188.157 35.04 187.663 34.8533 187.263 34.48C186.89 34.08 186.703 33.5867 186.703 33V21.56C186.703 19.9333 186.29 18.7067 185.463 17.88C184.663 17.0267 183.583 16.6 182.223 16.6C180.837 16.6 179.69 17.08 178.783 18.04C177.903 19 177.463 20.2267 177.463 21.72V33C177.463 33.5867 177.277 34.08 176.903 34.48C176.53 34.8533 176.037 35.04 175.423 35.04C174.837 35.04 174.343 34.8533 173.943 34.48C173.57 34.08 173.383 33.5867 173.383 33V21.56C173.383 19.9333 172.97 18.7067 172.143 17.88C171.343 17.0267 170.263 16.6 168.903 16.6C167.49 16.6 166.33 17.08 165.423 18.04C164.543 19 164.103 20.2267 164.103 21.72V33C164.103 33.5867 163.917 34.08 163.543 34.48C163.17 34.8533 162.677 35.04 162.063 35.04C161.477 35.04 160.983 34.8533 160.583 34.48C160.21 34.08 160.023 33.5867 160.023 33V15.2C160.023 14.5867 160.21 14.0933 160.583 13.72C160.983 13.3467 161.477 13.16 162.063 13.16C162.65 13.16 163.13 13.3467 163.503 13.72C163.877 14.0667 164.077 14.5333 164.103 15.12C164.797 14.4267 165.623 13.8933 166.583 13.52C167.543 13.12 168.583 12.92 169.703 12.92C171.063 12.92 172.277 13.2 173.343 13.76C174.437 14.2933 175.33 15.0667 176.023 16.08C176.823 15.0933 177.823 14.32 179.023 13.76C180.223 13.2 181.557 12.92 183.023 12.92ZM212.402 13.08C213.016 13.08 213.509 13.2667 213.882 13.64C214.256 14.0133 214.442 14.5067 214.442 15.12V32.96C214.442 33.5467 214.256 34.04 213.882 34.44C213.509 34.8133 213.016 35 212.402 35C211.816 35 211.322 34.8133 210.922 34.44C210.549 34.04 210.362 33.5467 210.362 32.96V32.52C209.509 33.3733 208.496 34.04 207.322 34.52C206.149 34.9733 204.896 35.2 203.562 35.2C201.722 35.2 200.069 34.8 198.602 34C197.136 33.2 195.989 32.04 195.162 30.52C194.336 28.9733 193.922 27.12 193.922 24.96V15.12C193.922 14.5333 194.109 14.0533 194.482 13.68C194.882 13.28 195.376 13.08 195.962 13.08C196.549 13.08 197.029 13.28 197.402 13.68C197.802 14.0533 198.002 14.5333 198.002 15.12V24.96C198.002 27.12 198.576 28.76 199.722 29.88C200.896 30.9733 202.442 31.52 204.362 31.52C205.482 31.52 206.496 31.2933 207.402 30.84C208.336 30.3867 209.056 29.7733 209.562 29C210.096 28.2267 210.362 27.36 210.362 26.4V15.12C210.362 14.5067 210.549 14.0133 210.922 13.64C211.322 13.2667 211.816 13.08 212.402 13.08ZM229.308 12.92C231.148 12.92 232.801 13.32 234.268 14.12C235.735 14.92 236.881 16.0933 237.708 17.64C238.535 19.16 238.948 21 238.948 23.16V33C238.948 33.5867 238.748 34.08 238.348 34.48C237.975 34.8533 237.495 35.04 236.908 35.04C236.321 35.04 235.828 34.8533 235.428 34.48C235.055 34.08 234.868 33.5867 234.868 33V23.16C234.868 21 234.281 19.3733 233.108 18.28C231.961 17.16 230.428 16.6 228.508 16.6C227.388 16.6 226.361 16.8267 225.428 17.28C224.521 17.7333 223.801 18.3467 223.268 19.12C222.761 19.8933 222.508 20.76 222.508 21.72V33C222.508 33.5867 222.321 34.08 221.948 34.48C221.575 34.8533 221.081 35.04 220.468 35.04C219.881 35.04 219.388 34.8533 218.988 34.48C218.615 34.08 218.428 33.5867 218.428 33V15.16C218.428 14.5467 218.615 14.0533 218.988 13.68C219.388 13.3067 219.881 13.12 220.468 13.12C221.081 13.12 221.575 13.3067 221.948 13.68C222.321 14.0533 222.508 14.5467 222.508 15.16V15.6C223.361 14.7467 224.375 14.0933 225.548 13.64C226.721 13.16 227.975 12.92 229.308 12.92ZM242.894 15.16C242.894 14.5467 243.08 14.0533 243.454 13.68C243.854 13.3067 244.347 13.12 244.934 13.12C245.547 13.12 246.04 13.3067 246.414 13.68C246.787 14.0533 246.974 14.5467 246.974 15.16V32.96C246.974 33.5467 246.787 34.04 246.414 34.44C246.04 34.8133 245.547 35 244.934 35C244.347 35 243.854 34.8133 243.454 34.44C243.08 34.04 242.894 33.5467 242.894 32.96V15.16ZM244.934 4.28C245.654 4.28 246.267 4.54667 246.774 5.08C247.307 5.58667 247.574 6.2 247.574 6.92C247.574 7.64 247.307 8.26667 246.774 8.8C246.267 9.30667 245.654 9.56 244.934 9.56C244.214 9.56 243.587 9.30667 243.054 8.8C242.547 8.26667 242.294 7.64 242.294 6.92C242.294 6.2 242.547 5.58667 243.054 5.08C243.587 4.54667 244.214 4.28 244.934 4.28ZM260.684 31C261.164 31 261.564 31.1867 261.884 31.56C262.231 31.9333 262.404 32.4133 262.404 33C262.404 33.5867 262.177 34.0667 261.724 34.44C261.297 34.8133 260.737 35 260.044 35H259.324C258.017 35 256.817 34.6667 255.724 34C254.657 33.3067 253.817 32.3733 253.204 31.2C252.591 30.0267 252.284 28.7067 252.284 27.24V17.36H250.444C249.884 17.36 249.431 17.2 249.084 16.88C248.737 16.56 248.564 16.16 248.564 15.68C248.564 15.1467 248.737 14.72 249.084 14.4C249.431 14.08 249.884 13.92 250.444 13.92H252.284V8.16C252.284 7.57333 252.471 7.09333 252.844 6.72C253.217 6.34667 253.697 6.16 254.284 6.16C254.871 6.16 255.351 6.34667 255.724 6.72C256.097 7.09333 256.284 7.57333 256.284 8.16V13.92H259.684C260.244 13.92 260.697 14.08 261.044 14.4C261.391 14.72 261.564 15.1467 261.564 15.68C261.564 16.16 261.391 16.56 261.044 16.88C260.697 17.2 260.244 17.36 259.684 17.36H256.284V27.24C256.284 28.3067 256.577 29.2 257.164 29.92C257.751 30.64 258.471 31 259.324 31H260.684ZM280.939 13.32C281.765 13.64 282.179 14.16 282.179 14.88C282.179 15.1467 282.099 15.4667 281.939 15.84L269.699 43.36C269.379 44.1867 268.859 44.6 268.139 44.6C267.872 44.6 267.552 44.52 267.179 44.36C266.379 44.0133 265.979 43.4933 265.979 42.8C265.979 42.48 266.059 42.16 266.219 41.84L270.219 32.84L261.219 15.76C261.085 15.52 261.019 15.24 261.019 14.92C261.019 14.5733 261.125 14.2533 261.339 13.96C261.552 13.6667 261.832 13.44 262.179 13.28C262.419 13.1733 262.685 13.12 262.979 13.12C263.725 13.12 264.285 13.4933 264.659 14.24L271.979 28.8L278.419 14.28C278.765 13.5067 279.285 13.12 279.979 13.12C280.325 13.12 280.645 13.1867 280.939 13.32Z" fill="#646464"/>
<path d="M61.8398 16C56.7617 16.3906 49.5352 21.3711 45.9219 23.0312C43.0898 24.3008 40.5508 25.375 38.5 25.375C36.2539 25.375 35.9609 23.8125 36.3516 20.2969C36.4492 19.5156 37.5234 12.582 32.25 12.875C29.7109 13.0703 25.9023 15.3164 15.6484 25.1797L19.75 15.1211C22.6797 7.69922 14.4766 0.277344 7.05469 5.0625L1.68359 8.67578C1 9.06641 0.707031 10.043 1.19531 10.8242L2.85547 13.4609C3.34375 14.1445 4.32031 14.4375 5.00391 13.9492L10.668 10.1406C12.5234 8.96875 14.6719 10.8242 13.8906 12.7773L4.32031 36.8008C3.63672 38.3633 4.61328 41 7.25 41C8.03125 41 8.8125 40.707 9.39844 40.1211C13.5 36.0195 24.5352 25.375 30.0039 20.9805C29.8086 23.8125 29.8086 26.7422 32.0547 29.1836C33.5195 30.8438 35.668 31.625 38.4023 31.625C41.918 31.625 45.043 30.2578 48.4609 28.6953C51.6836 27.3281 58.1289 22.6406 61.9375 22.3477C62.8164 22.25 63.4023 21.5664 63.4023 20.7852V17.6602C63.5 16.7812 62.7188 16 61.8398 16Z" fill="#EA2AC4"/>
</svg>
