<svg width="263" height="45" viewBox="0 0 263 45" fill="none" xmlns="http://www.w3.org/2000/svg">
<path d="M76 5.84C76 5.22667 76.2 4.73333 76.6 4.36C77 3.96 77.4933 3.76 78.08 3.76C78.6933 3.76 79.1867 3.96 79.56 4.36C79.96 4.73333 80.16 5.22667 80.16 5.84V32.92C80.16 33.5067 79.96 34 79.56 34.4C79.1867 34.8 78.6933 35 78.08 35C77.4933 35 77 34.8 76.6 34.4C76.2 34 76 33.5067 76 32.92V5.84ZM95.4284 12.92C97.2684 12.92 98.9218 13.32 100.388 14.12C101.855 14.92 103.002 16.0933 103.828 17.64C104.655 19.16 105.068 21 105.068 23.16V33C105.068 33.5867 104.868 34.08 104.468 34.48C104.095 34.8533 103.615 35.04 103.028 35.04C102.442 35.04 101.948 34.8533 101.548 34.48C101.175 34.08 100.988 33.5867 100.988 33V23.16C100.988 21 100.402 19.3733 99.2284 18.28C98.0818 17.16 96.5484 16.6 94.6284 16.6C93.5084 16.6 92.4818 16.8267 91.5484 17.28C90.6418 17.7333 89.9218 18.3467 89.3884 19.12C88.8818 19.8933 88.6284 20.76 88.6284 21.72V33C88.6284 33.5867 88.4418 34.08 88.0684 34.48C87.6951 34.8533 87.2018 35.04 86.5884 35.04C86.0018 35.04 85.5084 34.8533 85.1084 34.48C84.7351 34.08 84.5484 33.5867 84.5484 33V15.16C84.5484 14.5467 84.7351 14.0533 85.1084 13.68C85.5084 13.3067 86.0018 13.12 86.5884 13.12C87.2018 13.12 87.6951 13.3067 88.0684 13.68C88.4418 14.0533 88.6284 14.5467 88.6284 15.16V15.6C89.4818 14.7467 90.4951 14.0933 91.6684 13.64C92.8418 13.16 94.0951 12.92 95.4284 12.92ZM118.054 7.44C116.561 7.44 115.361 7.93333 114.454 8.92C113.547 9.90667 113.094 11.2133 113.094 12.84V13.92H117.174C117.734 13.92 118.187 14.08 118.534 14.4C118.881 14.72 119.054 15.1467 119.054 15.68C119.054 16.16 118.881 16.56 118.534 16.88C118.187 17.2 117.734 17.36 117.174 17.36H113.094V32.96C113.094 33.5733 112.907 34.0667 112.534 34.44C112.161 34.8133 111.641 35 110.974 35C110.441 35 109.974 34.8133 109.574 34.44C109.201 34.0667 109.014 33.5733 109.014 32.96V17.36H107.294C106.734 17.36 106.281 17.2 105.934 16.88C105.587 16.56 105.414 16.16 105.414 15.68C105.414 15.1467 105.587 14.72 105.934 14.4C106.281 14.08 106.734 13.92 107.294 13.92H109.014V13.24C109.014 11.3467 109.387 9.69333 110.134 8.28C110.907 6.84 111.974 5.73333 113.334 4.96C114.721 4.16 116.294 3.76 118.054 3.76C118.641 3.76 119.121 3.93333 119.494 4.28C119.894 4.62667 120.094 5.06667 120.094 5.6C120.094 6.13333 119.894 6.57333 119.494 6.92C119.121 7.26667 118.641 7.44 118.054 7.44ZM129.24 12.96C131.347 12.96 133.227 13.44 134.88 14.4C136.56 15.3333 137.867 16.64 138.8 18.32C139.76 20 140.24 21.92 140.24 24.08C140.24 26.2133 139.774 28.12 138.84 29.8C137.907 31.48 136.6 32.8 134.92 33.76C133.267 34.6933 131.374 35.16 129.24 35.16C127.107 35.16 125.2 34.6933 123.52 33.76C121.84 32.8 120.534 31.48 119.6 29.8C118.667 28.12 118.2 26.2133 118.2 24.08C118.2 21.92 118.667 20 119.6 18.32C120.534 16.64 121.84 15.3333 123.52 14.4C125.2 13.44 127.107 12.96 129.24 12.96ZM129.24 16.56C127.88 16.56 126.654 16.88 125.56 17.52C124.494 18.16 123.654 19.0533 123.04 20.2C122.427 21.3467 122.12 22.64 122.12 24.08C122.12 25.52 122.427 26.8133 123.04 27.96C123.654 29.08 124.494 29.96 125.56 30.6C126.654 31.24 127.88 31.56 129.24 31.56C130.6 31.56 131.814 31.24 132.88 30.6C133.974 29.96 134.814 29.08 135.4 27.96C136.014 26.8133 136.32 25.52 136.32 24.08C136.32 22.64 136.014 21.3467 135.4 20.2C134.814 19.0533 133.974 18.16 132.88 17.52C131.814 16.88 130.6 16.56 129.24 16.56ZM152.432 31C152.912 31 153.312 31.1867 153.632 31.56C153.979 31.9333 154.152 32.4133 154.152 33C154.152 33.5867 153.926 34.0667 153.472 34.44C153.046 34.8133 152.486 35 151.792 35H151.072C149.766 35 148.566 34.6667 147.472 34C146.406 33.3067 145.566 32.3733 144.952 31.2C144.339 30.0267 144.032 28.7067 144.032 27.24V17.36H142.192C141.632 17.36 141.179 17.2 140.832 16.88C140.486 16.56 140.312 16.16 140.312 15.68C140.312 15.1467 140.486 14.72 140.832 14.4C141.179 14.08 141.632 13.92 142.192 13.92H144.032V8.16C144.032 7.57333 144.219 7.09333 144.592 6.72C144.966 6.34667 145.446 6.16 146.032 6.16C146.619 6.16 147.099 6.34667 147.472 6.72C147.846 7.09333 148.032 7.57333 148.032 8.16V13.92H151.432C151.992 13.92 152.446 14.08 152.792 14.4C153.139 14.72 153.312 15.1467 153.312 15.68C153.312 16.16 153.139 16.56 152.792 16.88C152.446 17.2 151.992 17.36 151.432 17.36H148.032V27.24C148.032 28.3067 148.326 29.2 148.912 29.92C149.499 30.64 150.219 31 151.072 31H152.432ZM165.887 12.96C167.994 12.96 169.874 13.44 171.527 14.4C173.207 15.3333 174.514 16.64 175.447 18.32C176.407 20 176.887 21.92 176.887 24.08C176.887 26.2133 176.421 28.12 175.487 29.8C174.554 31.48 173.247 32.8 171.567 33.76C169.914 34.6933 168.021 35.16 165.887 35.16C163.754 35.16 161.847 34.6933 160.167 33.76C158.487 32.8 157.181 31.48 156.247 29.8C155.314 28.12 154.847 26.2133 154.847 24.08C154.847 21.92 155.314 20 156.247 18.32C157.181 16.64 158.487 15.3333 160.167 14.4C161.847 13.44 163.754 12.96 165.887 12.96ZM165.887 16.56C164.527 16.56 163.301 16.88 162.207 17.52C161.141 18.16 160.301 19.0533 159.687 20.2C159.074 21.3467 158.767 22.64 158.767 24.08C158.767 25.52 159.074 26.8133 159.687 27.96C160.301 29.08 161.141 29.96 162.207 30.6C163.301 31.24 164.527 31.56 165.887 31.56C167.247 31.56 168.461 31.24 169.527 30.6C170.621 29.96 171.461 29.08 172.047 27.96C172.661 26.8133 172.967 25.52 172.967 24.08C172.967 22.64 172.661 21.3467 172.047 20.2C171.461 19.0533 170.621 18.16 169.527 17.52C168.461 16.88 167.247 16.56 165.887 16.56ZM190.479 12.88C191.893 12.88 192.999 13.0933 193.799 13.52C194.599 13.9467 194.999 14.48 194.999 15.12C194.999 15.3067 194.986 15.44 194.959 15.52C194.719 16.3733 194.186 16.8 193.359 16.8C193.226 16.8 193.026 16.7733 192.759 16.72C191.693 16.5333 190.826 16.44 190.159 16.44C188.239 16.44 186.693 16.88 185.519 17.76C184.346 18.64 183.759 19.8267 183.759 21.32V33C183.759 33.64 183.586 34.1333 183.239 34.48C182.919 34.8267 182.426 35 181.759 35C181.119 35 180.626 34.84 180.279 34.52C179.933 34.1733 179.759 33.6667 179.759 33V15.12C179.759 14.48 179.933 13.9867 180.279 13.64C180.626 13.2933 181.119 13.12 181.759 13.12C183.093 13.12 183.759 13.7867 183.759 15.12V15.88C184.559 14.9467 185.546 14.2133 186.719 13.68C187.893 13.1467 189.146 12.88 190.479 12.88ZM204.331 12.96C206.438 12.96 208.318 13.44 209.971 14.4C211.651 15.3333 212.958 16.64 213.891 18.32C214.851 20 215.331 21.92 215.331 24.08V32.72C215.331 34.8267 214.864 36.7467 213.931 38.48C212.998 40.2133 211.678 41.5733 209.971 42.56C208.291 43.5733 206.384 44.08 204.251 44.08C202.331 44.08 200.544 43.6933 198.891 42.92C197.238 42.1733 195.851 41.0933 194.731 39.68C194.438 39.3067 194.291 38.9333 194.291 38.56C194.291 38 194.571 37.52 195.131 37.12C195.504 36.88 195.878 36.76 196.251 36.76C196.918 36.76 197.464 37.04 197.891 37.6C198.611 38.5333 199.518 39.24 200.611 39.72C201.704 40.2267 202.944 40.48 204.331 40.48C205.638 40.48 206.824 40.16 207.891 39.52C208.958 38.9067 209.811 37.9867 210.451 36.76C211.091 35.56 211.411 34.12 211.411 32.44V30.48C210.584 31.9467 209.491 33.0933 208.131 33.92C206.771 34.7467 205.238 35.16 203.531 35.16C201.558 35.16 199.784 34.6933 198.211 33.76C196.664 32.8 195.451 31.48 194.571 29.8C193.718 28.12 193.291 26.2133 193.291 24.08C193.291 21.92 193.758 20 194.691 18.32C195.624 16.64 196.931 15.3333 198.611 14.4C200.291 13.44 202.198 12.96 204.331 12.96ZM204.331 31.56C205.691 31.56 206.904 31.24 207.971 30.6C209.064 29.96 209.904 29.08 210.491 27.96C211.104 26.8133 211.411 25.52 211.411 24.08C211.411 22.64 211.104 21.3467 210.491 20.2C209.904 19.0533 209.064 18.16 207.971 17.52C206.904 16.88 205.691 16.56 204.331 16.56C202.971 16.56 201.744 16.88 200.651 17.52C199.584 18.16 198.744 19.0533 198.131 20.2C197.518 21.3467 197.211 22.64 197.211 24.08C197.211 25.52 197.518 26.8133 198.131 27.96C198.744 29.08 199.584 29.96 200.651 30.6C201.744 31.24 202.971 31.56 204.331 31.56ZM237.843 23.72C237.843 24.2267 237.67 24.6533 237.323 25C236.976 25.32 236.536 25.48 236.003 25.48H220.803C221.096 27.3467 221.936 28.8533 223.323 30C224.736 31.1467 226.456 31.72 228.483 31.72C229.283 31.72 230.11 31.5733 230.963 31.28C231.843 30.9867 232.563 30.6267 233.123 30.2C233.496 29.9067 233.936 29.76 234.443 29.76C234.95 29.76 235.35 29.8933 235.643 30.16C236.123 30.56 236.363 31.0133 236.363 31.52C236.363 32 236.15 32.4 235.723 32.72C234.816 33.44 233.683 34.0267 232.323 34.48C230.99 34.9333 229.71 35.16 228.483 35.16C226.296 35.16 224.336 34.6933 222.603 33.76C220.87 32.8 219.51 31.48 218.523 29.8C217.563 28.12 217.083 26.2133 217.083 24.08C217.083 21.9467 217.536 20.04 218.443 18.36C219.376 16.6533 220.656 15.3333 222.283 14.4C223.936 13.44 225.803 12.96 227.883 12.96C229.936 12.96 231.71 13.4133 233.203 14.32C234.696 15.2267 235.843 16.4933 236.643 18.12C237.443 19.7467 237.843 21.6133 237.843 23.72ZM227.883 16.4C225.936 16.4 224.35 16.9333 223.123 18C221.923 19.0667 221.163 20.4933 220.843 22.28H234.163C233.923 20.4933 233.256 19.0667 232.163 18C231.07 16.9333 229.643 16.4 227.883 16.4ZM249.167 31C249.647 31 250.047 31.1867 250.367 31.56C250.714 31.9333 250.887 32.4133 250.887 33C250.887 33.5867 250.66 34.0667 250.207 34.44C249.78 34.8133 249.22 35 248.527 35H247.807C246.5 35 245.3 34.6667 244.207 34C243.14 33.3067 242.3 32.3733 241.687 31.2C241.074 30.0267 240.767 28.7067 240.767 27.24V17.36H238.927C238.367 17.36 237.914 17.2 237.567 16.88C237.22 16.56 237.047 16.16 237.047 15.68C237.047 15.1467 237.22 14.72 237.567 14.4C237.914 14.08 238.367 13.92 238.927 13.92H240.767V8.16C240.767 7.57333 240.954 7.09333 241.327 6.72C241.7 6.34667 242.18 6.16 242.767 6.16C243.354 6.16 243.834 6.34667 244.207 6.72C244.58 7.09333 244.767 7.57333 244.767 8.16V13.92H248.167C248.727 13.92 249.18 14.08 249.527 14.4C249.874 14.72 250.047 15.1467 250.047 15.68C250.047 16.16 249.874 16.56 249.527 16.88C249.18 17.2 248.727 17.36 248.167 17.36H244.767V27.24C244.767 28.3067 245.06 29.2 245.647 29.92C246.234 30.64 246.954 31 247.807 31H249.167Z" fill="#EBEBEB"/>
<path d="M61.8398 16C56.7617 16.3906 49.5352 21.3711 45.9219 23.0312C43.0898 24.3008 40.5508 25.375 38.5 25.375C36.2539 25.375 35.9609 23.8125 36.3516 20.2969C36.4492 19.5156 37.5234 12.582 32.25 12.875C29.7109 13.0703 25.9023 15.3164 15.6484 25.1797L19.75 15.1211C22.6797 7.69922 14.4766 0.277344 7.05469 5.0625L1.68359 8.67578C1 9.06641 0.707031 10.043 1.19531 10.8242L2.85547 13.4609C3.34375 14.1445 4.32031 14.4375 5.00391 13.9492L10.668 10.1406C12.5234 8.96875 14.6719 10.8242 13.8906 12.7773L4.32031 36.8008C3.63672 38.3633 4.61328 41 7.25 41C8.03125 41 8.8125 40.707 9.39844 40.1211C13.5 36.0195 24.5352 25.375 30.0039 20.9805C29.8086 23.8125 29.8086 26.7422 32.0547 29.1836C33.5195 30.8438 35.668 31.625 38.4023 31.625C41.918 31.625 45.043 30.2578 48.4609 28.6953C51.6836 27.3281 58.1289 22.6406 61.9375 22.3477C62.8164 22.25 63.4023 21.5664 63.4023 20.7852V17.6602C63.5 16.7812 62.7188 16 61.8398 16Z" fill="#EA2AC4"/>
</svg>
