<svg width="219" height="45" viewBox="0 0 219 45" fill="none" xmlns="http://www.w3.org/2000/svg">
<path d="M76 5.84C76 5.22667 76.2 4.73333 76.6 4.36C77 3.96 77.4933 3.76 78.08 3.76C78.6933 3.76 79.1867 3.96 79.56 4.36C79.96 4.73333 80.16 5.22667 80.16 5.84V32.92C80.16 33.5067 79.96 34 79.56 34.4C79.1867 34.8 78.6933 35 78.08 35C77.4933 35 77 34.8 76.6 34.4C76.2 34 76 33.5067 76 32.92V5.84ZM95.4284 12.92C97.2684 12.92 98.9218 13.32 100.388 14.12C101.855 14.92 103.002 16.0933 103.828 17.64C104.655 19.16 105.068 21 105.068 23.16V33C105.068 33.5867 104.868 34.08 104.468 34.48C104.095 34.8533 103.615 35.04 103.028 35.04C102.442 35.04 101.948 34.8533 101.548 34.48C101.175 34.08 100.988 33.5867 100.988 33V23.16C100.988 21 100.402 19.3733 99.2284 18.28C98.0818 17.16 96.5484 16.6 94.6284 16.6C93.5084 16.6 92.4818 16.8267 91.5484 17.28C90.6418 17.7333 89.9218 18.3467 89.3884 19.12C88.8818 19.8933 88.6284 20.76 88.6284 21.72V33C88.6284 33.5867 88.4418 34.08 88.0684 34.48C87.6951 34.8533 87.2018 35.04 86.5884 35.04C86.0018 35.04 85.5084 34.8533 85.1084 34.48C84.7351 34.08 84.5484 33.5867 84.5484 33V15.16C84.5484 14.5467 84.7351 14.0533 85.1084 13.68C85.5084 13.3067 86.0018 13.12 86.5884 13.12C87.2018 13.12 87.6951 13.3067 88.0684 13.68C88.4418 14.0533 88.6284 14.5467 88.6284 15.16V15.6C89.4818 14.7467 90.4951 14.0933 91.6684 13.64C92.8418 13.16 94.0951 12.92 95.4284 12.92ZM124.243 13.4C124.59 13.56 124.856 13.7867 125.043 14.08C125.23 14.3467 125.323 14.6533 125.323 15C125.323 15.24 125.256 15.4933 125.123 15.76L116.643 33.64C116.243 34.52 115.63 34.96 114.803 34.96C114.35 34.96 113.976 34.8667 113.683 34.68C113.39 34.4667 113.123 34.12 112.883 33.64L104.403 15.76C104.296 15.5467 104.243 15.3067 104.243 15.04C104.243 14.32 104.616 13.7733 105.363 13.4C105.603 13.2667 105.883 13.2 106.203 13.2C106.523 13.2 106.83 13.2933 107.123 13.48C107.416 13.64 107.643 13.88 107.803 14.2L114.763 29.2L121.643 14.2C121.803 13.88 122.03 13.64 122.323 13.48C122.643 13.2933 122.976 13.2 123.323 13.2C123.67 13.2 123.976 13.2667 124.243 13.4ZM144.976 23.72C144.976 24.2267 144.803 24.6533 144.456 25C144.109 25.32 143.669 25.48 143.136 25.48H127.936C128.229 27.3467 129.069 28.8533 130.456 30C131.869 31.1467 133.589 31.72 135.616 31.72C136.416 31.72 137.243 31.5733 138.096 31.28C138.976 30.9867 139.696 30.6267 140.256 30.2C140.629 29.9067 141.069 29.76 141.576 29.76C142.083 29.76 142.483 29.8933 142.776 30.16C143.256 30.56 143.496 31.0133 143.496 31.52C143.496 32 143.283 32.4 142.856 32.72C141.949 33.44 140.816 34.0267 139.456 34.48C138.123 34.9333 136.843 35.16 135.616 35.16C133.429 35.16 131.469 34.6933 129.736 33.76C128.003 32.8 126.643 31.48 125.656 29.8C124.696 28.12 124.216 26.2133 124.216 24.08C124.216 21.9467 124.669 20.04 125.576 18.36C126.509 16.6533 127.789 15.3333 129.416 14.4C131.069 13.44 132.936 12.96 135.016 12.96C137.069 12.96 138.843 13.4133 140.336 14.32C141.829 15.2267 142.976 16.4933 143.776 18.12C144.576 19.7467 144.976 21.6133 144.976 23.72ZM135.016 16.4C133.069 16.4 131.483 16.9333 130.256 18C129.056 19.0667 128.296 20.4933 127.976 22.28H141.296C141.056 20.4933 140.389 19.0667 139.296 18C138.203 16.9333 136.776 16.4 135.016 16.4ZM154.66 12.96C156.393 12.96 157.94 13.24 159.3 13.8C160.686 14.36 161.78 15.1333 162.58 16.12C162.926 16.5467 163.1 16.9733 163.1 17.4C163.1 17.8533 162.873 18.2667 162.42 18.64C162.126 18.8533 161.753 18.96 161.3 18.96C160.606 18.96 159.98 18.7067 159.42 18.2C158.753 17.5867 158.046 17.16 157.3 16.92C156.553 16.6533 155.646 16.52 154.58 16.52C153.353 16.52 152.34 16.7333 151.54 17.16C150.766 17.56 150.38 18.1333 150.38 18.88C150.38 19.4133 150.513 19.8667 150.78 20.24C151.046 20.5867 151.553 20.92 152.3 21.24C153.046 21.5333 154.126 21.8267 155.54 22.12C158.446 22.7067 160.5 23.52 161.7 24.56C162.926 25.6 163.54 26.9467 163.54 28.6C163.54 29.8267 163.206 30.9467 162.54 31.96C161.873 32.9467 160.886 33.7333 159.58 34.32C158.3 34.88 156.753 35.16 154.94 35.16C153.126 35.16 151.42 34.88 149.82 34.32C148.22 33.76 146.966 33.0267 146.06 32.12C145.713 31.7733 145.54 31.36 145.54 30.88C145.54 30.24 145.806 29.72 146.34 29.32C146.846 28.9467 147.313 28.76 147.74 28.76C148.273 28.76 148.78 29 149.26 29.48C149.766 30.04 150.526 30.5333 151.54 30.96C152.553 31.36 153.633 31.56 154.78 31.56C156.3 31.56 157.473 31.3067 158.3 30.8C159.153 30.2933 159.58 29.6133 159.58 28.76C159.58 27.9333 159.166 27.2533 158.34 26.72C157.513 26.16 156.113 25.6933 154.14 25.32C149.02 24.3333 146.46 22.2267 146.46 19C146.46 17.6933 146.846 16.5867 147.62 15.68C148.393 14.7733 149.406 14.0933 150.66 13.64C151.913 13.1867 153.246 12.96 154.66 12.96ZM174.818 31C175.298 31 175.698 31.1867 176.018 31.56C176.365 31.9333 176.538 32.4133 176.538 33C176.538 33.5867 176.312 34.0667 175.858 34.44C175.432 34.8133 174.872 35 174.178 35H173.458C172.152 35 170.952 34.6667 169.858 34C168.792 33.3067 167.952 32.3733 167.338 31.2C166.725 30.0267 166.418 28.7067 166.418 27.24V17.36H164.578C164.018 17.36 163.565 17.2 163.218 16.88C162.872 16.56 162.698 16.16 162.698 15.68C162.698 15.1467 162.872 14.72 163.218 14.4C163.565 14.08 164.018 13.92 164.578 13.92H166.418V8.16C166.418 7.57333 166.605 7.09333 166.978 6.72C167.352 6.34667 167.832 6.16 168.418 6.16C169.005 6.16 169.485 6.34667 169.858 6.72C170.232 7.09333 170.418 7.57333 170.418 8.16V13.92H173.818C174.378 13.92 174.832 14.08 175.178 14.4C175.525 14.72 175.698 15.1467 175.698 15.68C175.698 16.16 175.525 16.56 175.178 16.88C174.832 17.2 174.378 17.36 173.818 17.36H170.418V27.24C170.418 28.3067 170.712 29.2 171.298 29.92C171.885 30.64 172.605 31 173.458 31H174.818ZM188.273 12.96C190.38 12.96 192.26 13.44 193.913 14.4C195.593 15.3333 196.9 16.64 197.833 18.32C198.793 20 199.273 21.92 199.273 24.08C199.273 26.2133 198.806 28.12 197.873 29.8C196.94 31.48 195.633 32.8 193.953 33.76C192.3 34.6933 190.406 35.16 188.273 35.16C186.14 35.16 184.233 34.6933 182.553 33.76C180.873 32.8 179.566 31.48 178.633 29.8C177.7 28.12 177.233 26.2133 177.233 24.08C177.233 21.92 177.7 20 178.633 18.32C179.566 16.64 180.873 15.3333 182.553 14.4C184.233 13.44 186.14 12.96 188.273 12.96ZM188.273 16.56C186.913 16.56 185.686 16.88 184.593 17.52C183.526 18.16 182.686 19.0533 182.073 20.2C181.46 21.3467 181.153 22.64 181.153 24.08C181.153 25.52 181.46 26.8133 182.073 27.96C182.686 29.08 183.526 29.96 184.593 30.6C185.686 31.24 186.913 31.56 188.273 31.56C189.633 31.56 190.846 31.24 191.913 30.6C193.006 29.96 193.846 29.08 194.433 27.96C195.046 26.8133 195.353 25.52 195.353 24.08C195.353 22.64 195.046 21.3467 194.433 20.2C193.846 19.0533 193.006 18.16 191.913 17.52C190.846 16.88 189.633 16.56 188.273 16.56ZM212.865 12.88C214.279 12.88 215.385 13.0933 216.185 13.52C216.985 13.9467 217.385 14.48 217.385 15.12C217.385 15.3067 217.372 15.44 217.345 15.52C217.105 16.3733 216.572 16.8 215.745 16.8C215.612 16.8 215.412 16.7733 215.145 16.72C214.079 16.5333 213.212 16.44 212.545 16.44C210.625 16.44 209.079 16.88 207.905 17.76C206.732 18.64 206.145 19.8267 206.145 21.32V33C206.145 33.64 205.972 34.1333 205.625 34.48C205.305 34.8267 204.812 35 204.145 35C203.505 35 203.012 34.84 202.665 34.52C202.319 34.1733 202.145 33.6667 202.145 33V15.12C202.145 14.48 202.319 13.9867 202.665 13.64C203.012 13.2933 203.505 13.12 204.145 13.12C205.479 13.12 206.145 13.7867 206.145 15.12V15.88C206.945 14.9467 207.932 14.2133 209.105 13.68C210.279 13.1467 211.532 12.88 212.865 12.88Z" fill="#EBEBEB"/>
<path d="M61.8398 16C56.7617 16.3906 49.5352 21.3711 45.9219 23.0312C43.0898 24.3008 40.5508 25.375 38.5 25.375C36.2539 25.375 35.9609 23.8125 36.3516 20.2969C36.4492 19.5156 37.5234 12.582 32.25 12.875C29.7109 13.0703 25.9023 15.3164 15.6484 25.1797L19.75 15.1211C22.6797 7.69922 14.4766 0.277344 7.05469 5.0625L1.68359 8.67578C1 9.06641 0.707031 10.043 1.19531 10.8242L2.85547 13.4609C3.34375 14.1445 4.32031 14.4375 5.00391 13.9492L10.668 10.1406C12.5234 8.96875 14.6719 10.8242 13.8906 12.7773L4.32031 36.8008C3.63672 38.3633 4.61328 41 7.25 41C8.03125 41 8.8125 40.707 9.39844 40.1211C13.5 36.0195 24.5352 25.375 30.0039 20.9805C29.8086 23.8125 29.8086 26.7422 32.0547 29.1836C33.5195 30.8438 35.668 31.625 38.4023 31.625C41.918 31.625 45.043 30.2578 48.4609 28.6953C51.6836 27.3281 58.1289 22.6406 61.9375 22.3477C62.8164 22.25 63.4023 21.5664 63.4023 20.7852V17.6602C63.5 16.7812 62.7188 16 61.8398 16Z" fill="#EA2AC4"/>
</svg>
