<svg width="237" height="45" viewBox="0 0 237 45" fill="none" xmlns="http://www.w3.org/2000/svg">
<path d="M93.04 25.8C93.04 27.6667 92.6267 29.3333 91.8 30.8C90.9733 32.24 89.8267 33.3733 88.36 34.2C86.92 35 85.2667 35.4 83.4 35.4C81.5333 35.4 79.8667 35 78.4 34.2C76.96 33.3733 75.8267 32.24 75 30.8C74.2 29.3333 73.8 27.6667 73.8 25.8C73.8 25.1867 74 24.6933 74.4 24.32C74.8 23.92 75.2933 23.72 75.88 23.72C76.4933 23.72 76.9867 23.92 77.36 24.32C77.76 24.6933 77.96 25.1867 77.96 25.8C77.96 27.5067 78.4667 28.9067 79.48 30C80.4933 31.0933 81.8 31.64 83.4 31.64C85 31.64 86.3067 31.0933 87.32 30C88.36 28.9067 88.88 27.5067 88.88 25.8V5.84C88.88 5.22667 89.0667 4.73333 89.44 4.36C89.84 3.96 90.3333 3.76 90.92 3.76C91.5333 3.76 92.04 3.96 92.44 4.36C92.84 4.73333 93.04 5.22667 93.04 5.84V25.8ZM115.479 13.08C116.092 13.08 116.586 13.2667 116.959 13.64C117.332 14.0133 117.519 14.5067 117.519 15.12V32.96C117.519 33.5467 117.332 34.04 116.959 34.44C116.586 34.8133 116.092 35 115.479 35C114.892 35 114.399 34.8133 113.999 34.44C113.626 34.04 113.439 33.5467 113.439 32.96V32.52C112.586 33.3733 111.572 34.04 110.399 34.52C109.226 34.9733 107.972 35.2 106.639 35.2C104.799 35.2 103.146 34.8 101.679 34C100.212 33.2 99.0657 32.04 98.2391 30.52C97.4124 28.9733 96.9991 27.12 96.9991 24.96V15.12C96.9991 14.5333 97.1857 14.0533 97.5591 13.68C97.9591 13.28 98.4524 13.08 99.0391 13.08C99.6257 13.08 100.106 13.28 100.479 13.68C100.879 14.0533 101.079 14.5333 101.079 15.12V24.96C101.079 27.12 101.652 28.76 102.799 29.88C103.972 30.9733 105.519 31.52 107.439 31.52C108.559 31.52 109.572 31.2933 110.479 30.84C111.412 30.3867 112.132 29.7733 112.639 29C113.172 28.2267 113.439 27.36 113.439 26.4V15.12C113.439 14.5067 113.626 14.0133 113.999 13.64C114.399 13.2667 114.892 13.08 115.479 13.08ZM132.225 12.88C133.638 12.88 134.745 13.0933 135.545 13.52C136.345 13.9467 136.745 14.48 136.745 15.12C136.745 15.3067 136.731 15.44 136.705 15.52C136.465 16.3733 135.931 16.8 135.105 16.8C134.971 16.8 134.771 16.7733 134.505 16.72C133.438 16.5333 132.571 16.44 131.905 16.44C129.985 16.44 128.438 16.88 127.265 17.76C126.091 18.64 125.505 19.8267 125.505 21.32V33C125.505 33.64 125.331 34.1333 124.985 34.48C124.665 34.8267 124.171 35 123.505 35C122.865 35 122.371 34.84 122.025 34.52C121.678 34.1733 121.505 33.6667 121.505 33V15.12C121.505 14.48 121.678 13.9867 122.025 13.64C122.371 13.2933 122.865 13.12 123.505 13.12C124.838 13.12 125.505 13.7867 125.505 15.12V15.88C126.305 14.9467 127.291 14.2133 128.465 13.68C129.638 13.1467 130.891 12.88 132.225 12.88ZM138.158 15.16C138.158 14.5467 138.344 14.0533 138.718 13.68C139.118 13.3067 139.611 13.12 140.198 13.12C140.811 13.12 141.304 13.3067 141.678 13.68C142.051 14.0533 142.238 14.5467 142.238 15.16V32.96C142.238 33.5467 142.051 34.04 141.678 34.44C141.304 34.8133 140.811 35 140.198 35C139.611 35 139.118 34.8133 138.718 34.44C138.344 34.04 138.158 33.5467 138.158 32.96V15.16ZM140.198 4.28C140.918 4.28 141.531 4.54667 142.038 5.08C142.571 5.58667 142.838 6.2 142.838 6.92C142.838 7.64 142.571 8.26667 142.038 8.8C141.531 9.30667 140.918 9.56 140.198 9.56C139.478 9.56 138.851 9.30667 138.318 8.8C137.811 8.26667 137.558 7.64 137.558 6.92C137.558 6.2 137.811 5.58667 138.318 5.08C138.851 4.54667 139.478 4.28 140.198 4.28ZM165.508 3.76C166.121 3.76 166.615 3.94667 166.988 4.32C167.361 4.69333 167.548 5.18667 167.548 5.8V24.04C167.548 26.12 167.055 28.0133 166.068 29.72C165.108 31.4 163.788 32.7333 162.108 33.72C160.455 34.68 158.601 35.16 156.548 35.16C154.495 35.16 152.615 34.68 150.908 33.72C149.228 32.7333 147.908 31.4 146.948 29.72C145.988 28.0133 145.508 26.12 145.508 24.04C145.508 21.96 145.948 20.08 146.828 18.4C147.735 16.6933 148.961 15.36 150.508 14.4C152.081 13.44 153.828 12.96 155.748 12.96C157.295 12.96 158.735 13.28 160.068 13.92C161.401 14.56 162.535 15.4533 163.468 16.6V5.8C163.468 5.18667 163.655 4.69333 164.028 4.32C164.428 3.94667 164.921 3.76 165.508 3.76ZM156.548 31.56C157.881 31.56 159.081 31.24 160.148 30.6C161.241 29.9333 162.095 29.0267 162.708 27.88C163.321 26.7333 163.628 25.4533 163.628 24.04C163.628 22.6267 163.321 21.36 162.708 20.24C162.095 19.0933 161.241 18.2 160.148 17.56C159.081 16.8933 157.881 16.56 156.548 16.56C155.215 16.56 154.001 16.8933 152.908 17.56C151.841 18.2 150.988 19.0933 150.348 20.24C149.735 21.36 149.428 22.6267 149.428 24.04C149.428 25.4533 149.735 26.7333 150.348 27.88C150.988 29.0267 151.841 29.9333 152.908 30.6C154.001 31.24 155.215 31.56 156.548 31.56ZM171.953 15.16C171.953 14.5467 172.14 14.0533 172.513 13.68C172.913 13.3067 173.406 13.12 173.993 13.12C174.606 13.12 175.1 13.3067 175.473 13.68C175.846 14.0533 176.033 14.5467 176.033 15.16V32.96C176.033 33.5467 175.846 34.04 175.473 34.44C175.1 34.8133 174.606 35 173.993 35C173.406 35 172.913 34.8133 172.513 34.44C172.14 34.04 171.953 33.5467 171.953 32.96V15.16ZM173.993 4.28C174.713 4.28 175.326 4.54667 175.833 5.08C176.366 5.58667 176.633 6.2 176.633 6.92C176.633 7.64 176.366 8.26667 175.833 8.8C175.326 9.30667 174.713 9.56 173.993 9.56C173.273 9.56 172.646 9.30667 172.113 8.8C171.606 8.26667 171.353 7.64 171.353 6.92C171.353 6.2 171.606 5.58667 172.113 5.08C172.646 4.54667 173.273 4.28 173.993 4.28ZM190.143 12.96C193.29 12.96 195.903 14.16 197.983 16.56C198.25 16.8533 198.383 17.2 198.383 17.6C198.383 18.1867 198.09 18.68 197.503 19.08C197.237 19.2667 196.93 19.36 196.583 19.36C195.97 19.36 195.45 19.12 195.023 18.64C194.357 17.92 193.623 17.4 192.823 17.08C192.05 16.7333 191.157 16.56 190.143 16.56C188.09 16.56 186.423 17.2533 185.143 18.64C183.863 20 183.223 21.8133 183.223 24.08C183.223 25.52 183.517 26.8133 184.103 27.96C184.717 29.08 185.557 29.96 186.623 30.6C187.717 31.24 188.957 31.56 190.343 31.56C192.157 31.56 193.623 31.0933 194.743 30.16C195.25 29.7867 195.743 29.6 196.223 29.6C196.597 29.6 196.943 29.72 197.263 29.96C197.77 30.3867 198.023 30.8667 198.023 31.4C198.023 31.8 197.863 32.16 197.543 32.48C195.623 34.2667 193.223 35.16 190.343 35.16C188.237 35.16 186.343 34.68 184.663 33.72C182.983 32.76 181.663 31.44 180.703 29.76C179.77 28.0533 179.303 26.16 179.303 24.08C179.303 21.9467 179.757 20.04 180.663 18.36C181.597 16.6533 182.89 15.3333 184.543 14.4C186.197 13.44 188.063 12.96 190.143 12.96ZM201.647 15.16C201.647 14.5467 201.834 14.0533 202.207 13.68C202.607 13.3067 203.1 13.12 203.687 13.12C204.3 13.12 204.794 13.3067 205.167 13.68C205.54 14.0533 205.727 14.5467 205.727 15.16V32.96C205.727 33.5467 205.54 34.04 205.167 34.44C204.794 34.8133 204.3 35 203.687 35C203.1 35 202.607 34.8133 202.207 34.44C201.834 34.04 201.647 33.5467 201.647 32.96V15.16ZM203.687 4.28C204.407 4.28 205.02 4.54667 205.527 5.08C206.06 5.58667 206.327 6.2 206.327 6.92C206.327 7.64 206.06 8.26667 205.527 8.8C205.02 9.30667 204.407 9.56 203.687 9.56C202.967 9.56 202.34 9.30667 201.807 8.8C201.3 8.26667 201.047 7.64 201.047 6.92C201.047 6.2 201.3 5.58667 201.807 5.08C202.34 4.54667 202.967 4.28 203.687 4.28ZM220.037 12.96C222.091 12.96 223.944 13.4533 225.597 14.44C227.277 15.4 228.597 16.7333 229.557 18.44C230.544 20.12 231.037 22 231.037 24.08V33C231.037 33.5867 230.837 34.08 230.437 34.48C230.064 34.8533 229.584 35.04 228.997 35.04C228.411 35.04 227.917 34.8533 227.517 34.48C227.144 34.08 226.957 33.5867 226.957 33V31.52C226.024 32.6667 224.891 33.56 223.557 34.2C222.224 34.84 220.784 35.16 219.237 35.16C217.317 35.16 215.571 34.68 213.997 33.72C212.451 32.76 211.224 31.44 210.317 29.76C209.437 28.0533 208.997 26.16 208.997 24.08C208.997 22 209.477 20.12 210.437 18.44C211.397 16.7333 212.717 15.4 214.397 14.44C216.104 13.4533 217.984 12.96 220.037 12.96ZM220.037 31.56C221.371 31.56 222.571 31.24 223.637 30.6C224.731 29.9333 225.584 29.04 226.197 27.92C226.811 26.7733 227.117 25.4933 227.117 24.08C227.117 22.6667 226.811 21.3867 226.197 20.24C225.584 19.0933 224.731 18.2 223.637 17.56C222.571 16.8933 221.371 16.56 220.037 16.56C218.704 16.56 217.491 16.8933 216.397 17.56C215.331 18.2 214.477 19.0933 213.837 20.24C213.224 21.3867 212.917 22.6667 212.917 24.08C212.917 25.4933 213.224 26.7733 213.837 27.92C214.477 29.04 215.331 29.9333 216.397 30.6C217.491 31.24 218.704 31.56 220.037 31.56Z" fill="#646464"/>
<path d="M61.8398 16C56.7617 16.3906 49.5352 21.3711 45.9219 23.0312C43.0898 24.3008 40.5508 25.375 38.5 25.375C36.2539 25.375 35.9609 23.8125 36.3516 20.2969C36.4492 19.5156 37.5234 12.582 32.25 12.875C29.7109 13.0703 25.9023 15.3164 15.6484 25.1797L19.75 15.1211C22.6797 7.69922 14.4766 0.277344 7.05469 5.0625L1.68359 8.67578C1 9.06641 0.707031 10.043 1.19531 10.8242L2.85547 13.4609C3.34375 14.1445 4.32031 14.4375 5.00391 13.9492L10.668 10.1406C12.5234 8.96875 14.6719 10.8242 13.8906 12.7773L4.32031 36.8008C3.63672 38.3633 4.61328 41 7.25 41C8.03125 41 8.8125 40.707 9.39844 40.1211C13.5 36.0195 24.5352 25.375 30.0039 20.9805C29.8086 23.8125 29.8086 26.7422 32.0547 29.1836C33.5195 30.8438 35.668 31.625 38.4023 31.625C41.918 31.625 45.043 30.2578 48.4609 28.6953C51.6836 27.3281 58.1289 22.6406 61.9375 22.3477C62.8164 22.25 63.4023 21.5664 63.4023 20.7852V17.6602C63.5 16.7812 62.7188 16 61.8398 16Z" fill="#EA2AC4"/>
</svg>
