<svg width="306" height="45" viewBox="0 0 306 45" fill="none" xmlns="http://www.w3.org/2000/svg">
<path d="M105.2 3.76C105.787 3.76 106.28 3.96 106.68 4.36C107.08 4.76 107.28 5.25333 107.28 5.84V32.92C107.28 33.5067 107.067 34 106.64 34.4C106.24 34.8 105.76 35 105.2 35C104.613 35 104.12 34.8 103.72 34.4C103.32 34 103.12 33.5067 103.12 32.92V13.04L93.44 32.76C92.9867 33.4533 92.3867 33.8 91.64 33.8C90.76 33.8 90.12 33.3867 89.72 32.56L80.16 13.4V32.92C80.16 33.5067 79.96 34 79.56 34.4C79.16 34.8 78.6667 35 78.08 35C77.4933 35 77 34.8 76.6 34.4C76.2 34 76 33.5067 76 32.92V5.84C76 5.25333 76.2 4.76 76.6 4.36C77 3.96 77.4933 3.76 78.08 3.76C78.88 3.76 79.4933 4.13333 79.92 4.88L91.8 28.68L103.36 4.88C103.787 4.13333 104.4 3.76 105.2 3.76ZM121.617 12.96C123.67 12.96 125.524 13.4533 127.177 14.44C128.857 15.4 130.177 16.7333 131.137 18.44C132.124 20.12 132.617 22 132.617 24.08V33C132.617 33.5867 132.417 34.08 132.017 34.48C131.644 34.8533 131.164 35.04 130.577 35.04C129.99 35.04 129.497 34.8533 129.097 34.48C128.724 34.08 128.537 33.5867 128.537 33V31.52C127.604 32.6667 126.47 33.56 125.137 34.2C123.804 34.84 122.364 35.16 120.817 35.16C118.897 35.16 117.15 34.68 115.577 33.72C114.03 32.76 112.804 31.44 111.897 29.76C111.017 28.0533 110.577 26.16 110.577 24.08C110.577 22 111.057 20.12 112.017 18.44C112.977 16.7333 114.297 15.4 115.977 14.44C117.684 13.4533 119.564 12.96 121.617 12.96ZM121.617 31.56C122.95 31.56 124.15 31.24 125.217 30.6C126.31 29.9333 127.164 29.04 127.777 27.92C128.39 26.7733 128.697 25.4933 128.697 24.08C128.697 22.6667 128.39 21.3867 127.777 20.24C127.164 19.0933 126.31 18.2 125.217 17.56C124.15 16.8933 122.95 16.56 121.617 16.56C120.284 16.56 119.07 16.8933 117.977 17.56C116.91 18.2 116.057 19.0933 115.417 20.24C114.804 21.3867 114.497 22.6667 114.497 24.08C114.497 25.4933 114.804 26.7733 115.417 27.92C116.057 29.04 116.91 29.9333 117.977 30.6C119.07 31.24 120.284 31.56 121.617 31.56ZM146.209 12.88C147.622 12.88 148.729 13.0933 149.529 13.52C150.329 13.9467 150.729 14.48 150.729 15.12C150.729 15.3067 150.716 15.44 150.689 15.52C150.449 16.3733 149.916 16.8 149.089 16.8C148.956 16.8 148.756 16.7733 148.489 16.72C147.422 16.5333 146.556 16.44 145.889 16.44C143.969 16.44 142.422 16.88 141.249 17.76C140.076 18.64 139.489 19.8267 139.489 21.32V33C139.489 33.64 139.316 34.1333 138.969 34.48C138.649 34.8267 138.156 35 137.489 35C136.849 35 136.356 34.84 136.009 34.52C135.662 34.1733 135.489 33.6667 135.489 33V15.12C135.489 14.48 135.662 13.9867 136.009 13.64C136.356 13.2933 136.849 13.12 137.489 13.12C138.822 13.12 139.489 13.7867 139.489 15.12V15.88C140.289 14.9467 141.276 14.2133 142.449 13.68C143.622 13.1467 144.876 12.88 146.209 12.88ZM168.262 32.12C168.556 32.44 168.702 32.84 168.702 33.32C168.702 33.9067 168.462 34.4 167.982 34.8C167.582 35.12 167.156 35.28 166.702 35.28C166.116 35.28 165.636 35.04 165.262 34.56L157.662 25.16L155.662 26.92V33.04C155.662 33.6267 155.476 34.1067 155.102 34.48C154.756 34.8267 154.289 35 153.702 35C153.116 35 152.636 34.8267 152.262 34.48C151.916 34.1067 151.742 33.6267 151.742 33.04V5.72C151.742 5.13333 151.916 4.66667 152.262 4.32C152.636 3.94667 153.116 3.76 153.702 3.76C154.289 3.76 154.756 3.94667 155.102 4.32C155.476 4.66667 155.662 5.13333 155.662 5.72V22L165.382 13.32C165.729 12.9733 166.142 12.8 166.622 12.8C167.182 12.8 167.636 13.0133 167.982 13.44C168.329 13.7867 168.502 14.2 168.502 14.68C168.502 15.24 168.289 15.6933 167.862 16.04L160.502 22.6L168.262 32.12ZM188.963 23.72C188.963 24.2267 188.79 24.6533 188.443 25C188.097 25.32 187.657 25.48 187.123 25.48H171.923C172.217 27.3467 173.057 28.8533 174.443 30C175.857 31.1467 177.577 31.72 179.603 31.72C180.403 31.72 181.23 31.5733 182.083 31.28C182.963 30.9867 183.683 30.6267 184.243 30.2C184.617 29.9067 185.057 29.76 185.563 29.76C186.07 29.76 186.47 29.8933 186.763 30.16C187.243 30.56 187.483 31.0133 187.483 31.52C187.483 32 187.27 32.4 186.843 32.72C185.937 33.44 184.803 34.0267 183.443 34.48C182.11 34.9333 180.83 35.16 179.603 35.16C177.417 35.16 175.457 34.6933 173.723 33.76C171.99 32.8 170.63 31.48 169.643 29.8C168.683 28.12 168.203 26.2133 168.203 24.08C168.203 21.9467 168.657 20.04 169.563 18.36C170.497 16.6533 171.777 15.3333 173.403 14.4C175.057 13.44 176.923 12.96 179.003 12.96C181.057 12.96 182.83 13.4133 184.323 14.32C185.817 15.2267 186.963 16.4933 187.763 18.12C188.563 19.7467 188.963 21.6133 188.963 23.72ZM179.003 16.4C177.057 16.4 175.47 16.9333 174.243 18C173.043 19.0667 172.283 20.4933 171.963 22.28H185.283C185.043 20.4933 184.377 19.0667 183.283 18C182.19 16.9333 180.763 16.4 179.003 16.4ZM200.287 31C200.767 31 201.167 31.1867 201.487 31.56C201.834 31.9333 202.007 32.4133 202.007 33C202.007 33.5867 201.781 34.0667 201.327 34.44C200.901 34.8133 200.341 35 199.647 35H198.927C197.621 35 196.421 34.6667 195.327 34C194.261 33.3067 193.421 32.3733 192.807 31.2C192.194 30.0267 191.887 28.7067 191.887 27.24V17.36H190.047C189.487 17.36 189.034 17.2 188.687 16.88C188.341 16.56 188.167 16.16 188.167 15.68C188.167 15.1467 188.341 14.72 188.687 14.4C189.034 14.08 189.487 13.92 190.047 13.92H191.887V8.16C191.887 7.57333 192.074 7.09333 192.447 6.72C192.821 6.34667 193.301 6.16 193.887 6.16C194.474 6.16 194.954 6.34667 195.327 6.72C195.701 7.09333 195.887 7.57333 195.887 8.16V13.92H199.287C199.847 13.92 200.301 14.08 200.647 14.4C200.994 14.72 201.167 15.1467 201.167 15.68C201.167 16.16 200.994 16.56 200.647 16.88C200.301 17.2 199.847 17.36 199.287 17.36H195.887V27.24C195.887 28.3067 196.181 29.2 196.767 29.92C197.354 30.64 198.074 31 198.927 31H200.287ZM214.822 12.96C216.875 12.96 218.742 13.4533 220.422 14.44C222.129 15.4 223.462 16.7333 224.422 18.44C225.382 20.12 225.862 22 225.862 24.08C225.862 26.16 225.409 28.0533 224.502 29.76C223.622 31.44 222.395 32.76 220.822 33.72C219.275 34.68 217.542 35.16 215.622 35.16C214.075 35.16 212.635 34.84 211.302 34.2C209.969 33.56 208.835 32.6667 207.902 31.52V42.32C207.902 42.9333 207.715 43.4267 207.342 43.8C206.969 44.1733 206.475 44.36 205.862 44.36C205.275 44.36 204.782 44.1733 204.382 43.8C204.009 43.4267 203.822 42.9333 203.822 42.32V24.08C203.822 22 204.302 20.12 205.262 18.44C206.249 16.7333 207.569 15.4 209.222 14.44C210.902 13.4533 212.769 12.96 214.822 12.96ZM214.822 31.56C216.155 31.56 217.355 31.24 218.422 30.6C219.515 29.9333 220.369 29.04 220.982 27.92C221.622 26.7733 221.942 25.4933 221.942 24.08C221.942 22.6667 221.622 21.3867 220.982 20.24C220.369 19.0933 219.515 18.2 218.422 17.56C217.355 16.8933 216.155 16.56 214.822 16.56C213.489 16.56 212.275 16.8933 211.182 17.56C210.115 18.2 209.275 19.0933 208.662 20.24C208.049 21.3867 207.742 22.6667 207.742 24.08C207.742 25.4933 208.049 26.7733 208.662 27.92C209.275 29.04 210.115 29.9333 211.182 30.6C212.275 31.24 213.489 31.56 214.822 31.56ZM227.947 5.76C227.947 5.17333 228.134 4.69333 228.507 4.32C228.88 3.94667 229.36 3.76 229.947 3.76C230.534 3.76 231.014 3.94667 231.387 4.32C231.76 4.69333 231.947 5.17333 231.947 5.76V27.6C231.947 28.5867 232.134 29.4 232.507 30.04C232.88 30.68 233.36 31 233.947 31H234.947C235.48 31 235.907 31.1867 236.227 31.56C236.574 31.9333 236.747 32.4133 236.747 33C236.747 33.5867 236.494 34.0667 235.987 34.44C235.48 34.8133 234.827 35 234.027 35H233.947C232.8 35 231.76 34.6933 230.827 34.08C229.92 33.44 229.214 32.56 228.707 31.44C228.2 30.2933 227.947 29.0133 227.947 27.6V5.76ZM246.248 12.96C248.301 12.96 250.155 13.4533 251.808 14.44C253.488 15.4 254.808 16.7333 255.768 18.44C256.755 20.12 257.248 22 257.248 24.08V33C257.248 33.5867 257.048 34.08 256.648 34.48C256.275 34.8533 255.795 35.04 255.208 35.04C254.621 35.04 254.128 34.8533 253.728 34.48C253.355 34.08 253.168 33.5867 253.168 33V31.52C252.235 32.6667 251.101 33.56 249.768 34.2C248.435 34.84 246.995 35.16 245.448 35.16C243.528 35.16 241.781 34.68 240.208 33.72C238.661 32.76 237.435 31.44 236.528 29.76C235.648 28.0533 235.208 26.16 235.208 24.08C235.208 22 235.688 20.12 236.648 18.44C237.608 16.7333 238.928 15.4 240.608 14.44C242.315 13.4533 244.195 12.96 246.248 12.96ZM246.248 31.56C247.581 31.56 248.781 31.24 249.848 30.6C250.941 29.9333 251.795 29.04 252.408 27.92C253.021 26.7733 253.328 25.4933 253.328 24.08C253.328 22.6667 253.021 21.3867 252.408 20.24C251.795 19.0933 250.941 18.2 249.848 17.56C248.781 16.8933 247.581 16.56 246.248 16.56C244.915 16.56 243.701 16.8933 242.608 17.56C241.541 18.2 240.688 19.0933 240.048 20.24C239.435 21.3867 239.128 22.6667 239.128 24.08C239.128 25.4933 239.435 26.7733 240.048 27.92C240.688 29.04 241.541 29.9333 242.608 30.6C243.701 31.24 244.915 31.56 246.248 31.56ZM269.84 12.96C272.987 12.96 275.6 14.16 277.68 16.56C277.947 16.8533 278.08 17.2 278.08 17.6C278.08 18.1867 277.787 18.68 277.2 19.08C276.934 19.2667 276.627 19.36 276.28 19.36C275.667 19.36 275.147 19.12 274.72 18.64C274.054 17.92 273.32 17.4 272.52 17.08C271.747 16.7333 270.854 16.56 269.84 16.56C267.787 16.56 266.12 17.2533 264.84 18.64C263.56 20 262.92 21.8133 262.92 24.08C262.92 25.52 263.214 26.8133 263.8 27.96C264.414 29.08 265.254 29.96 266.32 30.6C267.414 31.24 268.654 31.56 270.04 31.56C271.854 31.56 273.32 31.0933 274.44 30.16C274.947 29.7867 275.44 29.6 275.92 29.6C276.294 29.6 276.64 29.72 276.96 29.96C277.467 30.3867 277.72 30.8667 277.72 31.4C277.72 31.8 277.56 32.16 277.24 32.48C275.32 34.2667 272.92 35.16 270.04 35.16C267.934 35.16 266.04 34.68 264.36 33.72C262.68 32.76 261.36 31.44 260.4 29.76C259.467 28.0533 259 26.16 259 24.08C259 21.9467 259.454 20.04 260.36 18.36C261.294 16.6533 262.587 15.3333 264.24 14.4C265.894 13.44 267.76 12.96 269.84 12.96ZM300.584 23.72C300.584 24.2267 300.41 24.6533 300.064 25C299.717 25.32 299.277 25.48 298.744 25.48H283.544C283.837 27.3467 284.677 28.8533 286.064 30C287.477 31.1467 289.197 31.72 291.224 31.72C292.024 31.72 292.85 31.5733 293.704 31.28C294.584 30.9867 295.304 30.6267 295.864 30.2C296.237 29.9067 296.677 29.76 297.184 29.76C297.69 29.76 298.09 29.8933 298.384 30.16C298.864 30.56 299.104 31.0133 299.104 31.52C299.104 32 298.89 32.4 298.464 32.72C297.557 33.44 296.424 34.0267 295.064 34.48C293.73 34.9333 292.45 35.16 291.224 35.16C289.037 35.16 287.077 34.6933 285.344 33.76C283.61 32.8 282.25 31.48 281.264 29.8C280.304 28.12 279.824 26.2133 279.824 24.08C279.824 21.9467 280.277 20.04 281.184 18.36C282.117 16.6533 283.397 15.3333 285.024 14.4C286.677 13.44 288.544 12.96 290.624 12.96C292.677 12.96 294.45 13.4133 295.944 14.32C297.437 15.2267 298.584 16.4933 299.384 18.12C300.184 19.7467 300.584 21.6133 300.584 23.72ZM290.624 16.4C288.677 16.4 287.09 16.9333 285.864 18C284.664 19.0667 283.904 20.4933 283.584 22.28H296.904C296.664 20.4933 295.997 19.0667 294.904 18C293.81 16.9333 292.384 16.4 290.624 16.4Z" fill="#EBEBEB"/>
<path d="M61.8398 16C56.7617 16.3906 49.5352 21.3711 45.9219 23.0312C43.0898 24.3008 40.5508 25.375 38.5 25.375C36.2539 25.375 35.9609 23.8125 36.3516 20.2969C36.4492 19.5156 37.5234 12.582 32.25 12.875C29.7109 13.0703 25.9023 15.3164 15.6484 25.1797L19.75 15.1211C22.6797 7.69922 14.4766 0.277344 7.05469 5.0625L1.68359 8.67578C1 9.06641 0.707031 10.043 1.19531 10.8242L2.85547 13.4609C3.34375 14.1445 4.32031 14.4375 5.00391 13.9492L10.668 10.1406C12.5234 8.96875 14.6719 10.8242 13.8906 12.7773L4.32031 36.8008C3.63672 38.3633 4.61328 41 7.25 41C8.03125 41 8.8125 40.707 9.39844 40.1211C13.5 36.0195 24.5352 25.375 30.0039 20.9805C29.8086 23.8125 29.8086 26.7422 32.0547 29.1836C33.5195 30.8438 35.668 31.625 38.4023 31.625C41.918 31.625 45.043 30.2578 48.4609 28.6953C51.6836 27.3281 58.1289 22.6406 61.9375 22.3477C62.8164 22.25 63.4023 21.5664 63.4023 20.7852V17.6602C63.5 16.7812 62.7188 16 61.8398 16Z" fill="#EA2AC4"/>
</svg>
