<svg width="231" height="45" viewBox="0 0 231 45" fill="none" xmlns="http://www.w3.org/2000/svg">
<path d="M95.92 3.76C96.48 3.76 96.9333 3.94667 97.28 4.32C97.6533 4.66667 97.84 5.12 97.84 5.68C97.84 6.24 97.6533 6.70667 97.28 7.08C96.9333 7.42666 96.48 7.6 95.92 7.6H87.32V32.92C87.32 33.5067 87.12 34 86.72 34.4C86.32 34.8 85.8267 35 85.24 35C84.6533 35 84.16 34.8 83.76 34.4C83.36 34 83.16 33.5067 83.16 32.92V7.6H74.52C73.96 7.6 73.4933 7.42666 73.12 7.08C72.7733 6.70667 72.6 6.24 72.6 5.68C72.6 5.12 72.7733 4.66667 73.12 4.32C73.4933 3.94667 73.96 3.76 74.52 3.76H95.92ZM112.47 23.72C112.47 24.2267 112.296 24.6533 111.95 25C111.603 25.32 111.163 25.48 110.63 25.48H95.4297C95.723 27.3467 96.563 28.8533 97.9497 30C99.363 31.1467 101.083 31.72 103.11 31.72C103.91 31.72 104.736 31.5733 105.59 31.28C106.47 30.9867 107.19 30.6267 107.75 30.2C108.123 29.9067 108.563 29.76 109.07 29.76C109.576 29.76 109.976 29.8933 110.27 30.16C110.75 30.56 110.99 31.0133 110.99 31.52C110.99 32 110.776 32.4 110.35 32.72C109.443 33.44 108.31 34.0267 106.95 34.48C105.616 34.9333 104.336 35.16 103.11 35.16C100.923 35.16 98.963 34.6933 97.2297 33.76C95.4964 32.8 94.1364 31.48 93.1497 29.8C92.1897 28.12 91.7097 26.2133 91.7097 24.08C91.7097 21.9467 92.163 20.04 93.0697 18.36C94.003 16.6533 95.283 15.3333 96.9097 14.4C98.563 13.44 100.43 12.96 102.51 12.96C104.563 12.96 106.336 13.4133 107.83 14.32C109.323 15.2267 110.47 16.4933 111.27 18.12C112.07 19.7467 112.47 21.6133 112.47 23.72ZM102.51 16.4C100.563 16.4 98.9764 16.9333 97.7497 18C96.5497 19.0667 95.7897 20.4933 95.4697 22.28H108.79C108.55 20.4933 107.883 19.0667 106.79 18C105.696 16.9333 104.27 16.4 102.51 16.4ZM137.473 12.92C139.793 12.92 141.66 13.68 143.073 15.2C144.513 16.72 145.233 18.84 145.233 21.56V33C145.233 33.5867 145.047 34.08 144.673 34.48C144.3 34.8533 143.807 35.04 143.193 35.04C142.607 35.04 142.113 34.8533 141.713 34.48C141.34 34.08 141.153 33.5867 141.153 33V21.56C141.153 19.9333 140.74 18.7067 139.913 17.88C139.113 17.0267 138.033 16.6 136.673 16.6C135.287 16.6 134.14 17.08 133.233 18.04C132.353 19 131.913 20.2267 131.913 21.72V33C131.913 33.5867 131.727 34.08 131.353 34.48C130.98 34.8533 130.487 35.04 129.873 35.04C129.287 35.04 128.793 34.8533 128.393 34.48C128.02 34.08 127.833 33.5867 127.833 33V21.56C127.833 19.9333 127.42 18.7067 126.593 17.88C125.793 17.0267 124.713 16.6 123.353 16.6C121.94 16.6 120.78 17.08 119.873 18.04C118.993 19 118.553 20.2267 118.553 21.72V33C118.553 33.5867 118.367 34.08 117.993 34.48C117.62 34.8533 117.127 35.04 116.513 35.04C115.927 35.04 115.433 34.8533 115.033 34.48C114.66 34.08 114.473 33.5867 114.473 33V15.2C114.473 14.5867 114.66 14.0933 115.033 13.72C115.433 13.3467 115.927 13.16 116.513 13.16C117.1 13.16 117.58 13.3467 117.953 13.72C118.327 14.0667 118.527 14.5333 118.553 15.12C119.247 14.4267 120.073 13.8933 121.033 13.52C121.993 13.12 123.033 12.92 124.153 12.92C125.513 12.92 126.727 13.2 127.793 13.76C128.887 14.2933 129.78 15.0667 130.473 16.08C131.273 15.0933 132.273 14.32 133.473 13.76C134.673 13.2 136.007 12.92 137.473 12.92ZM159.813 12.96C161.866 12.96 163.733 13.4533 165.413 14.44C167.119 15.4 168.453 16.7333 169.413 18.44C170.373 20.12 170.853 22 170.853 24.08C170.853 26.16 170.399 28.0533 169.493 29.76C168.613 31.44 167.386 32.76 165.813 33.72C164.266 34.68 162.533 35.16 160.613 35.16C159.066 35.16 157.626 34.84 156.293 34.2C154.959 33.56 153.826 32.6667 152.893 31.52V42.32C152.893 42.9333 152.706 43.4267 152.333 43.8C151.959 44.1733 151.466 44.36 150.853 44.36C150.266 44.36 149.773 44.1733 149.373 43.8C148.999 43.4267 148.813 42.9333 148.813 42.32V24.08C148.813 22 149.293 20.12 150.253 18.44C151.239 16.7333 152.559 15.4 154.213 14.44C155.893 13.4533 157.759 12.96 159.813 12.96ZM159.813 31.56C161.146 31.56 162.346 31.24 163.413 30.6C164.506 29.9333 165.359 29.04 165.973 27.92C166.613 26.7733 166.933 25.4933 166.933 24.08C166.933 22.6667 166.613 21.3867 165.973 20.24C165.359 19.0933 164.506 18.2 163.413 17.56C162.346 16.8933 161.146 16.56 159.813 16.56C158.479 16.56 157.266 16.8933 156.173 17.56C155.106 18.2 154.266 19.0933 153.653 20.24C153.039 21.3867 152.733 22.6667 152.733 24.08C152.733 25.4933 153.039 26.7733 153.653 27.92C154.266 29.04 155.106 29.9333 156.173 30.6C157.266 31.24 158.479 31.56 159.813 31.56ZM172.937 5.76C172.937 5.17333 173.124 4.69333 173.497 4.32C173.871 3.94667 174.351 3.76 174.937 3.76C175.524 3.76 176.004 3.94667 176.377 4.32C176.751 4.69333 176.937 5.17333 176.937 5.76V27.6C176.937 28.5867 177.124 29.4 177.497 30.04C177.871 30.68 178.351 31 178.937 31H179.937C180.471 31 180.897 31.1867 181.217 31.56C181.564 31.9333 181.737 32.4133 181.737 33C181.737 33.5867 181.484 34.0667 180.977 34.44C180.471 34.8133 179.817 35 179.017 35H178.937C177.791 35 176.751 34.6933 175.817 34.08C174.911 33.44 174.204 32.56 173.697 31.44C173.191 30.2933 172.937 29.0133 172.937 27.6V5.76ZM182.93 15.16C182.93 14.5467 183.116 14.0533 183.49 13.68C183.89 13.3067 184.383 13.12 184.97 13.12C185.583 13.12 186.076 13.3067 186.45 13.68C186.823 14.0533 187.01 14.5467 187.01 15.16V32.96C187.01 33.5467 186.823 34.04 186.45 34.44C186.076 34.8133 185.583 35 184.97 35C184.383 35 183.89 34.8133 183.49 34.44C183.116 34.04 182.93 33.5467 182.93 32.96V15.16ZM184.97 4.28C185.69 4.28 186.303 4.54667 186.81 5.08C187.343 5.58667 187.61 6.2 187.61 6.92C187.61 7.64 187.343 8.26667 186.81 8.8C186.303 9.30667 185.69 9.56 184.97 9.56C184.25 9.56 183.623 9.30667 183.09 8.8C182.583 8.26667 182.33 7.64 182.33 6.92C182.33 6.2 182.583 5.58667 183.09 5.08C183.623 4.54667 184.25 4.28 184.97 4.28ZM200.84 7.44C199.347 7.44 198.147 7.93333 197.24 8.92C196.333 9.90667 195.88 11.2133 195.88 12.84V13.92H199.96C200.52 13.92 200.973 14.08 201.32 14.4C201.667 14.72 201.84 15.1467 201.84 15.68C201.84 16.16 201.667 16.56 201.32 16.88C200.973 17.2 200.52 17.36 199.96 17.36H195.88V32.96C195.88 33.5733 195.693 34.0667 195.32 34.44C194.947 34.8133 194.427 35 193.76 35C193.227 35 192.76 34.8133 192.36 34.44C191.987 34.0667 191.8 33.5733 191.8 32.96V17.36H190.08C189.52 17.36 189.067 17.2 188.72 16.88C188.373 16.56 188.2 16.16 188.2 15.68C188.2 15.1467 188.373 14.72 188.72 14.4C189.067 14.08 189.52 13.92 190.08 13.92H191.8V13.24C191.8 11.3467 192.173 9.69333 192.92 8.28C193.693 6.84 194.76 5.73333 196.12 4.96C197.507 4.16 199.08 3.76 200.84 3.76C201.427 3.76 201.907 3.93333 202.28 4.28C202.68 4.62667 202.88 5.06667 202.88 5.6C202.88 6.13333 202.68 6.57333 202.28 6.92C201.907 7.26667 201.427 7.44 200.84 7.44ZM219.607 13.32C220.434 13.64 220.847 14.16 220.847 14.88C220.847 15.1467 220.768 15.4667 220.608 15.84L208.367 43.36C208.047 44.1867 207.527 44.6 206.807 44.6C206.541 44.6 206.221 44.52 205.847 44.36C205.047 44.0133 204.647 43.4933 204.647 42.8C204.647 42.48 204.727 42.16 204.887 41.84L208.887 32.84L199.887 15.76C199.754 15.52 199.687 15.24 199.687 14.92C199.687 14.5733 199.794 14.2533 200.007 13.96C200.221 13.6667 200.501 13.44 200.847 13.28C201.087 13.1733 201.354 13.12 201.647 13.12C202.394 13.12 202.954 13.4933 203.327 14.24L210.647 28.8L217.087 14.28C217.434 13.5067 217.954 13.12 218.647 13.12C218.994 13.12 219.314 13.1867 219.607 13.32Z" fill="#646464"/>
<path d="M61.8398 16C56.7617 16.3906 49.5352 21.3711 45.9219 23.0312C43.0898 24.3008 40.5508 25.375 38.5 25.375C36.2539 25.375 35.9609 23.8125 36.3516 20.2969C36.4492 19.5156 37.5234 12.582 32.25 12.875C29.7109 13.0703 25.9023 15.3164 15.6484 25.1797L19.75 15.1211C22.6797 7.69922 14.4766 0.277344 7.05469 5.0625L1.68359 8.67578C1 9.06641 0.707031 10.043 1.19531 10.8242L2.85547 13.4609C3.34375 14.1445 4.32031 14.4375 5.00391 13.9492L10.668 10.1406C12.5234 8.96875 14.6719 10.8242 13.8906 12.7773L4.32031 36.8008C3.63672 38.3633 4.61328 41 7.25 41C8.03125 41 8.8125 40.707 9.39844 40.1211C13.5 36.0195 24.5352 25.375 30.0039 20.9805C29.8086 23.8125 29.8086 26.7422 32.0547 29.1836C33.5195 30.8438 35.668 31.625 38.4023 31.625C41.918 31.625 45.043 30.2578 48.4609 28.6953C51.6836 27.3281 58.1289 22.6406 61.9375 22.3477C62.8164 22.25 63.4023 21.5664 63.4023 20.7852V17.6602C63.5 16.7812 62.7188 16 61.8398 16Z" fill="#EA2AC4"/>
</svg>
