<svg width="219" height="45" viewBox="0 0 219 45" fill="none" xmlns="http://www.w3.org/2000/svg">
<path d="M85.36 35C84.8 35 84.32 34.8 83.92 34.4C83.52 34 83.32 33.5067 83.32 32.92V23.6L72.64 7C72.2933 6.44 72.16 5.92 72.24 5.44C72.32 4.93333 72.5467 4.53333 72.92 4.24C73.32 3.92 73.7733 3.76 74.28 3.76C74.7333 3.76 75.0933 3.86667 75.36 4.08C75.6267 4.26666 75.88 4.54667 76.12 4.92L85.48 19.76L95 4.76C95.4267 4.09333 96.04 3.76 96.84 3.76C97.32 3.76 97.72 3.93333 98.04 4.28C98.36 4.6 98.5467 5.01333 98.6 5.52C98.6533 6 98.52 6.49333 98.2 7L87.44 23.6V32.92C87.44 33.5067 87.24 34 86.84 34.4C86.44 34.8 85.9467 35 85.36 35ZM105.133 35.16C102.972 35.16 101.066 34.6933 99.4125 33.76C97.7592 32.8 96.4525 31.4933 95.4925 29.84C94.5592 28.16 94.0925 26.24 94.0925 24.08C94.0925 21.8933 94.5592 19.9733 95.4925 18.32C96.4525 16.64 97.7592 15.3333 99.4125 14.4C101.066 13.44 102.972 12.96 105.133 12.96C107.266 12.96 109.159 13.44 110.812 14.4C112.466 15.3333 113.759 16.64 114.693 18.32C115.653 19.9733 116.133 21.8933 116.133 24.08C116.133 26.24 115.666 28.16 114.732 29.84C113.799 31.4933 112.506 32.8 110.853 33.76C109.199 34.6933 107.293 35.16 105.133 35.16ZM105.133 31.56C106.519 31.56 107.746 31.24 108.812 30.6C109.879 29.96 110.706 29.08 111.292 27.96C111.906 26.84 112.213 25.5467 112.213 24.08C112.213 22.6133 111.906 21.32 111.292 20.2C110.706 19.0533 109.879 18.16 108.812 17.52C107.746 16.88 106.519 16.56 105.133 16.56C103.746 16.56 102.519 16.88 101.452 17.52C100.386 18.16 99.5458 19.0533 98.9325 20.2C98.3192 21.32 98.0125 22.6133 98.0125 24.08C98.0125 25.5467 98.3192 26.84 98.9325 27.96C99.5458 29.08 100.386 29.96 101.452 30.6C102.519 31.24 103.746 31.56 105.133 31.56ZM130.005 35.16C127.925 35.16 126.058 34.68 124.405 33.72C122.751 32.7333 121.445 31.4 120.485 29.72C119.525 28.04 119.031 26.1467 119.005 24.04V5.8C119.005 5.18667 119.191 4.69333 119.565 4.32C119.965 3.94667 120.458 3.76 121.045 3.76C121.658 3.76 122.151 3.94667 122.525 4.32C122.898 4.69333 123.085 5.18667 123.085 5.8V16.6C124.018 15.48 125.138 14.6 126.445 13.96C127.778 13.2933 129.231 12.96 130.805 12.96C132.751 12.96 134.498 13.4533 136.045 14.44C137.591 15.4 138.805 16.72 139.685 18.4C140.591 20.0533 141.045 21.9333 141.045 24.04C141.045 26.1467 140.551 28.04 139.565 29.72C138.605 31.4 137.298 32.7333 135.645 33.72C133.991 34.68 132.111 35.16 130.005 35.16ZM130.005 31.56C131.365 31.56 132.578 31.24 133.645 30.6C134.711 29.9333 135.551 29.0267 136.165 27.88C136.805 26.7333 137.125 25.4533 137.125 24.04C137.125 22.6 136.805 21.32 136.165 20.2C135.551 19.08 134.711 18.2 133.645 17.56C132.578 16.8933 131.365 16.56 130.005 16.56C128.671 16.56 127.458 16.8933 126.365 17.56C125.298 18.2 124.458 19.08 123.845 20.2C123.231 21.32 122.925 22.6 122.925 24.04C122.925 25.4533 123.231 26.7333 123.845 27.88C124.458 29.0267 125.298 29.9333 126.365 30.6C127.458 31.24 128.671 31.56 130.005 31.56ZM154.93 35.16C152.85 35.16 150.983 34.68 149.33 33.72C147.676 32.7333 146.37 31.4 145.41 29.72C144.45 28.04 143.956 26.1467 143.93 24.04V5.8C143.93 5.18667 144.116 4.69333 144.49 4.32C144.89 3.94667 145.383 3.76 145.97 3.76C146.583 3.76 147.076 3.94667 147.45 4.32C147.823 4.69333 148.01 5.18667 148.01 5.8V16.6C148.943 15.48 150.063 14.6 151.37 13.96C152.703 13.2933 154.156 12.96 155.73 12.96C157.676 12.96 159.423 13.4533 160.97 14.44C162.516 15.4 163.73 16.72 164.61 18.4C165.516 20.0533 165.97 21.9333 165.97 24.04C165.97 26.1467 165.476 28.04 164.49 29.72C163.53 31.4 162.223 32.7333 160.57 33.72C158.916 34.68 157.036 35.16 154.93 35.16ZM154.93 31.56C156.29 31.56 157.503 31.24 158.57 30.6C159.636 29.9333 160.476 29.0267 161.09 27.88C161.73 26.7333 162.05 25.4533 162.05 24.04C162.05 22.6 161.73 21.32 161.09 20.2C160.476 19.08 159.636 18.2 158.57 17.56C157.503 16.8933 156.29 16.56 154.93 16.56C153.596 16.56 152.383 16.8933 151.29 17.56C150.223 18.2 149.383 19.08 148.77 20.2C148.156 21.32 147.85 22.6 147.85 24.04C147.85 25.4533 148.156 26.7333 148.77 27.88C149.383 29.0267 150.223 29.9333 151.29 30.6C152.383 31.24 153.596 31.56 154.93 31.56ZM174.055 35C172.881 35 171.841 34.68 170.935 34.04C170.028 33.4 169.321 32.5333 168.815 31.44C168.308 30.32 168.055 29.04 168.055 27.6V5.76C168.055 5.17333 168.241 4.69333 168.615 4.32C168.988 3.94667 169.468 3.76 170.055 3.76C170.641 3.76 171.121 3.94667 171.495 4.32C171.868 4.69333 172.055 5.17333 172.055 5.76V27.6C172.055 28.5867 172.241 29.4 172.615 30.04C172.988 30.68 173.468 31 174.055 31H175.055C175.588 31 176.015 31.1867 176.335 31.56C176.681 31.9333 176.855 32.4133 176.855 33C176.855 33.5867 176.601 34.0667 176.095 34.44C175.588 34.8133 174.935 35 174.135 35H174.055ZM186.716 35.16C184.503 35.16 182.529 34.6933 180.796 33.76C179.089 32.8 177.743 31.4933 176.756 29.84C175.796 28.16 175.316 26.24 175.316 24.08C175.316 21.8933 175.769 19.9733 176.676 18.32C177.609 16.64 178.889 15.3333 180.516 14.4C182.143 13.44 184.009 12.96 186.116 12.96C188.196 12.96 189.983 13.4267 191.476 14.36C192.969 15.2667 194.103 16.5333 194.876 18.16C195.676 19.76 196.076 21.6133 196.076 23.72C196.076 24.2267 195.903 24.6533 195.556 25C195.209 25.32 194.769 25.48 194.236 25.48H179.036C179.329 27.32 180.169 28.8267 181.556 30C182.969 31.1467 184.689 31.72 186.716 31.72C187.543 31.72 188.383 31.5733 189.236 31.28C190.116 30.96 190.823 30.6 191.356 30.2C191.756 29.9067 192.183 29.76 192.636 29.76C193.116 29.7333 193.529 29.8667 193.876 30.16C194.329 30.56 194.569 31 194.596 31.48C194.623 31.96 194.409 32.3733 193.956 32.72C193.049 33.44 191.916 34.0267 190.556 34.48C189.223 34.9333 187.943 35.16 186.716 35.16ZM186.116 16.4C184.143 16.4 182.556 16.9467 181.356 18.04C180.156 19.1333 179.396 20.5467 179.076 22.28H192.396C192.156 20.5733 191.503 19.1733 190.436 18.08C189.369 16.96 187.929 16.4 186.116 16.4ZM200.08 35C198.746 35 198.08 34.3333 198.08 33V15.12C198.08 13.7867 198.746 13.12 200.08 13.12C201.413 13.12 202.08 13.7867 202.08 15.12V15.88C202.88 14.9467 203.853 14.2133 205 13.68C206.173 13.1467 207.44 12.88 208.8 12.88C210.4 12.88 211.586 13.1467 212.36 13.68C213.16 14.1867 213.466 14.8 213.28 15.52C213.146 16.08 212.88 16.4533 212.48 16.64C212.08 16.8 211.613 16.8267 211.08 16.72C209.373 16.3733 207.84 16.3467 206.48 16.64C205.12 16.9333 204.04 17.48 203.24 18.28C202.466 19.08 202.08 20.0933 202.08 21.32V33C202.08 34.3333 201.413 35 200.08 35Z" fill="#EBEBEB"/>
<path d="M61.8398 16C56.7617 16.3906 49.5352 21.3711 45.9219 23.0312C43.0898 24.3008 40.5508 25.375 38.5 25.375C36.2539 25.375 35.9609 23.8125 36.3516 20.2969C36.4492 19.5156 37.5234 12.582 32.25 12.875C29.7109 13.0703 25.9023 15.3164 15.6484 25.1797L19.75 15.1211C22.6797 7.69922 14.4766 0.277344 7.05469 5.0625L1.68359 8.67578C1 9.06641 0.707031 10.043 1.19531 10.8242L2.85547 13.4609C3.34375 14.1445 4.32031 14.4375 5.00391 13.9492L10.668 10.1406C12.5234 8.96875 14.6719 10.8242 13.8906 12.7773L4.32031 36.8008C3.63672 38.3633 4.61328 41 7.25 41C8.03125 41 8.8125 40.707 9.39844 40.1211C13.5 36.0195 24.5352 25.375 30.0039 20.9805C29.8086 23.8125 29.8086 26.7422 32.0547 29.1836C33.5195 30.8438 35.668 31.625 38.4023 31.625C41.918 31.625 45.043 30.2578 48.4609 28.6953C51.6836 27.3281 58.1289 22.6406 61.9375 22.3477C62.8164 22.25 63.4023 21.5664 63.4023 20.7852V17.6602C63.5 16.7812 62.7188 16 61.8398 16Z" fill="#EA2AC4"/>
</svg>
