<svg width="259" height="45" viewBox="0 0 259 45" fill="none" xmlns="http://www.w3.org/2000/svg">
<path d="M76.64 7.44C76 7.44 75.5067 7.28 75.16 6.96C74.8133 6.64 74.6533 6.21333 74.68 5.68C74.6533 5.12 74.8267 4.66667 75.2 4.32C75.6 3.94667 76.1067 3.76 76.72 3.76H97.36C98 3.76 98.5067 3.97333 98.88 4.4C99.28 4.8 99.48 5.28 99.48 5.84C99.48 6.26666 99.3333 6.66666 99.04 7.04L79.4 31.32H97.36C97.9467 31.32 98.4267 31.5067 98.8 31.88C99.2 32.2267 99.4 32.64 99.4 33.12C99.4 33.7067 99.2133 34.1733 98.84 34.52C98.4667 34.84 97.9733 35 97.36 35H76.24C75.6267 35 75.1333 34.7867 74.76 34.36C74.3867 33.9333 74.2 33.44 74.2 32.88C74.2 32.4 74.3333 31.9867 74.6 31.64L94.16 7.44H76.64ZM120.127 13.08C120.741 13.08 121.234 13.2667 121.607 13.64C121.981 14.0133 122.167 14.5067 122.167 15.12V32.96C122.167 33.5467 121.981 34.04 121.607 34.44C121.234 34.8133 120.741 35 120.127 35C119.541 35 119.048 34.8133 118.647 34.44C118.274 34.04 118.087 33.5467 118.087 32.96V32.52C117.234 33.3733 116.221 34.04 115.048 34.52C113.874 34.9733 112.621 35.2 111.288 35.2C109.447 35.2 107.794 34.8 106.327 34C104.861 33.2 103.714 32.04 102.887 30.52C102.061 28.9733 101.647 27.12 101.647 24.96V15.12C101.647 14.5333 101.834 14.0533 102.207 13.68C102.607 13.28 103.101 13.08 103.687 13.08C104.274 13.08 104.754 13.28 105.127 13.68C105.527 14.0533 105.727 14.5333 105.727 15.12V24.96C105.727 27.12 106.301 28.76 107.447 29.88C108.621 30.9733 110.167 31.52 112.087 31.52C113.208 31.52 114.221 31.2933 115.127 30.84C116.061 30.3867 116.781 29.7733 117.288 29C117.821 28.2267 118.087 27.36 118.087 26.4V15.12C118.087 14.5067 118.274 14.0133 118.647 13.64C119.048 13.2667 119.541 13.08 120.127 13.08ZM137.153 12.96C139.206 12.96 141.073 13.4533 142.753 14.44C144.46 15.4 145.793 16.7333 146.753 18.44C147.713 20.12 148.193 22 148.193 24.08C148.193 26.16 147.74 28.0533 146.833 29.76C145.953 31.44 144.726 32.76 143.153 33.72C141.606 34.68 139.873 35.16 137.953 35.16C136.406 35.16 134.966 34.84 133.633 34.2C132.3 33.56 131.166 32.6667 130.233 31.52V42.32C130.233 42.9333 130.046 43.4267 129.673 43.8C129.3 44.1733 128.806 44.36 128.193 44.36C127.606 44.36 127.113 44.1733 126.713 43.8C126.34 43.4267 126.153 42.9333 126.153 42.32V24.08C126.153 22 126.633 20.12 127.593 18.44C128.58 16.7333 129.9 15.4 131.553 14.44C133.233 13.4533 135.1 12.96 137.153 12.96ZM137.153 31.56C138.486 31.56 139.686 31.24 140.753 30.6C141.846 29.9333 142.7 29.04 143.313 27.92C143.953 26.7733 144.273 25.4933 144.273 24.08C144.273 22.6667 143.953 21.3867 143.313 20.24C142.7 19.0933 141.846 18.2 140.753 17.56C139.686 16.8933 138.486 16.56 137.153 16.56C135.82 16.56 134.606 16.8933 133.513 17.56C132.446 18.2 131.606 19.0933 130.993 20.24C130.38 21.3867 130.073 22.6667 130.073 24.08C130.073 25.4933 130.38 26.7733 130.993 27.92C131.606 29.04 132.446 29.9333 133.513 30.6C134.606 31.24 135.82 31.56 137.153 31.56ZM162.078 12.96C164.131 12.96 165.998 13.4533 167.678 14.44C169.385 15.4 170.718 16.7333 171.678 18.44C172.638 20.12 173.118 22 173.118 24.08C173.118 26.16 172.665 28.0533 171.758 29.76C170.878 31.44 169.651 32.76 168.078 33.72C166.531 34.68 164.798 35.16 162.878 35.16C161.331 35.16 159.891 34.84 158.558 34.2C157.225 33.56 156.091 32.6667 155.158 31.52V42.32C155.158 42.9333 154.971 43.4267 154.598 43.8C154.225 44.1733 153.731 44.36 153.118 44.36C152.531 44.36 152.038 44.1733 151.638 43.8C151.265 43.4267 151.078 42.9333 151.078 42.32V24.08C151.078 22 151.558 20.12 152.518 18.44C153.505 16.7333 154.825 15.4 156.478 14.44C158.158 13.4533 160.025 12.96 162.078 12.96ZM162.078 31.56C163.411 31.56 164.611 31.24 165.678 30.6C166.771 29.9333 167.625 29.04 168.238 27.92C168.878 26.7733 169.198 25.4933 169.198 24.08C169.198 22.6667 168.878 21.3867 168.238 20.24C167.625 19.0933 166.771 18.2 165.678 17.56C164.611 16.8933 163.411 16.56 162.078 16.56C160.745 16.56 159.531 16.8933 158.438 17.56C157.371 18.2 156.531 19.0933 155.918 20.24C155.305 21.3867 154.998 22.6667 154.998 24.08C154.998 25.4933 155.305 26.7733 155.918 27.92C156.531 29.04 157.371 29.9333 158.438 30.6C159.531 31.24 160.745 31.56 162.078 31.56ZM185.923 12.96C188.03 12.96 189.91 13.44 191.563 14.4C193.243 15.3333 194.55 16.64 195.483 18.32C196.443 20 196.923 21.92 196.923 24.08C196.923 26.2133 196.456 28.12 195.523 29.8C194.59 31.48 193.283 32.8 191.603 33.76C189.95 34.6933 188.056 35.16 185.923 35.16C183.79 35.16 181.883 34.6933 180.203 33.76C178.523 32.8 177.216 31.48 176.283 29.8C175.35 28.12 174.883 26.2133 174.883 24.08C174.883 21.92 175.35 20 176.283 18.32C177.216 16.64 178.523 15.3333 180.203 14.4C181.883 13.44 183.79 12.96 185.923 12.96ZM185.923 16.56C184.563 16.56 183.336 16.88 182.243 17.52C181.176 18.16 180.336 19.0533 179.723 20.2C179.11 21.3467 178.803 22.64 178.803 24.08C178.803 25.52 179.11 26.8133 179.723 27.96C180.336 29.08 181.176 29.96 182.243 30.6C183.336 31.24 184.563 31.56 185.923 31.56C187.283 31.56 188.496 31.24 189.563 30.6C190.656 29.96 191.496 29.08 192.083 27.96C192.696 26.8133 193.003 25.52 193.003 24.08C193.003 22.64 192.696 21.3467 192.083 20.2C191.496 19.0533 190.656 18.16 189.563 17.52C188.496 16.88 187.283 16.56 185.923 16.56ZM210.515 12.88C211.929 12.88 213.035 13.0933 213.835 13.52C214.635 13.9467 215.035 14.48 215.035 15.12C215.035 15.3067 215.022 15.44 214.995 15.52C214.755 16.3733 214.222 16.8 213.395 16.8C213.262 16.8 213.062 16.7733 212.795 16.72C211.729 16.5333 210.862 16.44 210.195 16.44C208.275 16.44 206.729 16.88 205.555 17.76C204.382 18.64 203.795 19.8267 203.795 21.32V33C203.795 33.64 203.622 34.1333 203.275 34.48C202.955 34.8267 202.462 35 201.795 35C201.155 35 200.662 34.84 200.315 34.52C199.969 34.1733 199.795 33.6667 199.795 33V15.12C199.795 14.48 199.969 13.9867 200.315 13.64C200.662 13.2933 201.155 13.12 201.795 13.12C203.129 13.12 203.795 13.7867 203.795 15.12V15.88C204.595 14.9467 205.582 14.2133 206.755 13.68C207.929 13.1467 209.182 12.88 210.515 12.88ZM225.368 31C225.848 31 226.248 31.1867 226.568 31.56C226.915 31.9333 227.088 32.4133 227.088 33C227.088 33.5867 226.862 34.0667 226.408 34.44C225.982 34.8133 225.422 35 224.728 35H224.008C222.702 35 221.502 34.6667 220.408 34C219.342 33.3067 218.502 32.3733 217.888 31.2C217.275 30.0267 216.968 28.7067 216.968 27.24V17.36H215.128C214.568 17.36 214.115 17.2 213.768 16.88C213.422 16.56 213.248 16.16 213.248 15.68C213.248 15.1467 213.422 14.72 213.768 14.4C214.115 14.08 214.568 13.92 215.128 13.92H216.968V8.16C216.968 7.57333 217.155 7.09333 217.528 6.72C217.902 6.34667 218.382 6.16 218.968 6.16C219.555 6.16 220.035 6.34667 220.408 6.72C220.782 7.09333 220.968 7.57333 220.968 8.16V13.92H224.368C224.928 13.92 225.382 14.08 225.728 14.4C226.075 14.72 226.248 15.1467 226.248 15.68C226.248 16.16 226.075 16.56 225.728 16.88C225.382 17.2 224.928 17.36 224.368 17.36H220.968V27.24C220.968 28.3067 221.262 29.2 221.848 29.92C222.435 30.64 223.155 31 224.008 31H225.368ZM238.823 12.96C240.876 12.96 242.73 13.4533 244.383 14.44C246.063 15.4 247.383 16.7333 248.343 18.44C249.33 20.12 249.823 22 249.823 24.08V33C249.823 33.5867 249.623 34.08 249.223 34.48C248.85 34.8533 248.37 35.04 247.783 35.04C247.196 35.04 246.703 34.8533 246.303 34.48C245.93 34.08 245.743 33.5867 245.743 33V31.52C244.81 32.6667 243.676 33.56 242.343 34.2C241.01 34.84 239.57 35.16 238.023 35.16C236.103 35.16 234.356 34.68 232.783 33.72C231.236 32.76 230.01 31.44 229.103 29.76C228.223 28.0533 227.783 26.16 227.783 24.08C227.783 22 228.263 20.12 229.223 18.44C230.183 16.7333 231.503 15.4 233.183 14.44C234.89 13.4533 236.77 12.96 238.823 12.96ZM238.823 31.56C240.156 31.56 241.356 31.24 242.423 30.6C243.516 29.9333 244.37 29.04 244.983 27.92C245.596 26.7733 245.903 25.4933 245.903 24.08C245.903 22.6667 245.596 21.3867 244.983 20.24C244.37 19.0933 243.516 18.2 242.423 17.56C241.356 16.8933 240.156 16.56 238.823 16.56C237.49 16.56 236.276 16.8933 235.183 17.56C234.116 18.2 233.263 19.0933 232.623 20.24C232.01 21.3867 231.703 22.6667 231.703 24.08C231.703 25.4933 232.01 26.7733 232.623 27.92C233.263 29.04 234.116 29.9333 235.183 30.6C236.276 31.24 237.49 31.56 238.823 31.56Z" fill="#646464"/>
<path d="M61.8398 16C56.7617 16.3906 49.5352 21.3711 45.9219 23.0312C43.0898 24.3008 40.5508 25.375 38.5 25.375C36.2539 25.375 35.9609 23.8125 36.3516 20.2969C36.4492 19.5156 37.5234 12.582 32.25 12.875C29.7109 13.0703 25.9023 15.3164 15.6484 25.1797L19.75 15.1211C22.6797 7.69922 14.4766 0.277344 7.05469 5.0625L1.68359 8.67578C1 9.06641 0.707031 10.043 1.19531 10.8242L2.85547 13.4609C3.34375 14.1445 4.32031 14.4375 5.00391 13.9492L10.668 10.1406C12.5234 8.96875 14.6719 10.8242 13.8906 12.7773L4.32031 36.8008C3.63672 38.3633 4.61328 41 7.25 41C8.03125 41 8.8125 40.707 9.39844 40.1211C13.5 36.0195 24.5352 25.375 30.0039 20.9805C29.8086 23.8125 29.8086 26.7422 32.0547 29.1836C33.5195 30.8438 35.668 31.625 38.4023 31.625C41.918 31.625 45.043 30.2578 48.4609 28.6953C51.6836 27.3281 58.1289 22.6406 61.9375 22.3477C62.8164 22.25 63.4023 21.5664 63.4023 20.7852V17.6602C63.5 16.7812 62.7188 16 61.8398 16Z" fill="#EA2AC4"/>
</svg>
